<svg width="34" height="34" viewBox="0 0 34 34" fill="none" xmlns="http://www.w3.org/2000/svg">
<mask id="path-1-inside-1_211_2338" fill="white">
<path d="M20.0111 16.7644C19.8435 16.7644 19.6879 16.7184 19.5496 16.6442V16.6462C19.5496 16.9099 19.4471 17.1575 19.2612 17.343C19.0752 17.529 18.8277 17.6315 18.5643 17.6315C18.3943 17.6315 18.2367 17.5843 18.097 17.5082C18.0828 17.7494 17.9864 17.9749 17.8144 18.1471C17.6284 18.3331 17.381 18.4355 17.1174 18.4355C16.5938 18.4355 16.1685 18.0239 16.1379 17.508C15.9759 17.5956 15.7927 17.6415 15.6037 17.6293C15.0886 17.5956 14.6852 17.1505 14.6852 16.6159V12.1842L14.1806 13.0585C13.9884 13.3928 13.6286 13.6005 13.2412 13.6005C13.0525 13.6005 12.866 13.5509 12.7009 13.4563C12.4952 13.3371 12.3481 13.1457 12.287 12.9168C12.2255 12.6877 12.2573 12.4481 12.3762 12.2427C12.3763 12.2427 14.0273 9.38383 14.128 9.20822C14.1399 9.18182 14.1741 9.10524 14.2031 9.03997C14.2308 8.97765 14.2546 8.91369 14.2774 8.84941C14.7752 7.44385 16.008 6.57074 17.4947 6.57074C19.4254 6.57074 20.9961 8.27396 20.9961 10.3675L20.9963 15.779C20.9963 16.0424 20.894 16.2898 20.7082 16.476C20.5222 16.662 20.2747 16.7645 20.0111 16.7645L20.0111 16.7644ZM17.4948 7.09429C16.2172 7.09429 15.199 7.81588 14.7708 9.0245C14.7435 9.10124 14.7149 9.17799 14.6816 9.25277C14.585 9.46941 14.585 9.46941 14.5578 9.50056L14.5542 9.49745C14.4194 9.7518 14.0189 10.4453 12.8295 12.5048C12.7806 12.5892 12.7677 12.6873 12.7926 12.7811C12.8179 12.8749 12.8784 12.9539 12.9622 13.0023C13.2223 13.1517 13.5785 13.0553 13.7267 12.797L14.7203 11.0767C14.7797 10.9742 14.8997 10.9238 15.0149 10.955C15.1293 10.9857 15.2089 11.0895 15.2089 11.2079V16.616C15.2089 16.8712 15.4014 17.0914 15.6381 17.107C15.7745 17.1142 15.9018 17.0685 15.9974 16.973C16.0843 16.8861 16.1322 16.7703 16.1322 16.6465V13.1095C16.1322 12.9649 16.2494 12.8476 16.3941 12.8476C16.5387 12.8476 16.656 12.9647 16.656 13.1095L16.6558 17.4505C16.6558 17.705 16.8629 17.9121 17.1174 17.9121C17.2411 17.9121 17.3572 17.8642 17.4443 17.7773C17.5312 17.6902 17.5791 17.5741 17.5791 17.4505V13.1095C17.5791 12.9649 17.6962 12.8476 17.841 12.8476C17.9856 12.8476 18.1029 12.9647 18.1029 13.1095L18.1027 16.6058V16.6465C18.1027 16.9008 18.3098 17.108 18.5645 17.108C18.688 17.108 18.8038 17.0599 18.8913 16.9727C18.9783 16.8859 19.0261 16.7701 19.0261 16.6463V13.1093C19.0261 12.9647 19.1432 12.8474 19.288 12.8474C19.4327 12.8474 19.5499 12.9645 19.5499 13.1093L19.5496 15.7791C19.5496 16.0338 19.7567 16.2409 20.0111 16.2409C20.1349 16.2409 20.2507 16.1929 20.3376 16.1061C20.4248 16.0189 20.4725 15.9028 20.4725 15.7791L20.4727 10.3676C20.4727 8.56292 19.1368 7.09434 17.4947 7.09434L17.4948 7.09429Z"/>
</mask>
<path d="M20.0111 16.7644C19.8435 16.7644 19.6879 16.7184 19.5496 16.6442V16.6462C19.5496 16.9099 19.4471 17.1575 19.2612 17.343C19.0752 17.529 18.8277 17.6315 18.5643 17.6315C18.3943 17.6315 18.2367 17.5843 18.097 17.5082C18.0828 17.7494 17.9864 17.9749 17.8144 18.1471C17.6284 18.3331 17.381 18.4355 17.1174 18.4355C16.5938 18.4355 16.1685 18.0239 16.1379 17.508C15.9759 17.5956 15.7927 17.6415 15.6037 17.6293C15.0886 17.5956 14.6852 17.1505 14.6852 16.6159V12.1842L14.1806 13.0585C13.9884 13.3928 13.6286 13.6005 13.2412 13.6005C13.0525 13.6005 12.866 13.5509 12.7009 13.4563C12.4952 13.3371 12.3481 13.1457 12.287 12.9168C12.2255 12.6877 12.2573 12.4481 12.3762 12.2427C12.3763 12.2427 14.0273 9.38383 14.128 9.20822C14.1399 9.18182 14.1741 9.10524 14.2031 9.03997C14.2308 8.97765 14.2546 8.91369 14.2774 8.84941C14.7752 7.44385 16.008 6.57074 17.4947 6.57074C19.4254 6.57074 20.9961 8.27396 20.9961 10.3675L20.9963 15.779C20.9963 16.0424 20.894 16.2898 20.7082 16.476C20.5222 16.662 20.2747 16.7645 20.0111 16.7645L20.0111 16.7644ZM17.4948 7.09429C16.2172 7.09429 15.199 7.81588 14.7708 9.0245C14.7435 9.10124 14.7149 9.17799 14.6816 9.25277C14.585 9.46941 14.585 9.46941 14.5578 9.50056L14.5542 9.49745C14.4194 9.7518 14.0189 10.4453 12.8295 12.5048C12.7806 12.5892 12.7677 12.6873 12.7926 12.7811C12.8179 12.8749 12.8784 12.9539 12.9622 13.0023C13.2223 13.1517 13.5785 13.0553 13.7267 12.797L14.7203 11.0767C14.7797 10.9742 14.8997 10.9238 15.0149 10.955C15.1293 10.9857 15.2089 11.0895 15.2089 11.2079V16.616C15.2089 16.8712 15.4014 17.0914 15.6381 17.107C15.7745 17.1142 15.9018 17.0685 15.9974 16.973C16.0843 16.8861 16.1322 16.7703 16.1322 16.6465V13.1095C16.1322 12.9649 16.2494 12.8476 16.3941 12.8476C16.5387 12.8476 16.656 12.9647 16.656 13.1095L16.6558 17.4505C16.6558 17.705 16.8629 17.9121 17.1174 17.9121C17.2411 17.9121 17.3572 17.8642 17.4443 17.7773C17.5312 17.6902 17.5791 17.5741 17.5791 17.4505V13.1095C17.5791 12.9649 17.6962 12.8476 17.841 12.8476C17.9856 12.8476 18.1029 12.9647 18.1029 13.1095L18.1027 16.6058V16.6465C18.1027 16.9008 18.3098 17.108 18.5645 17.108C18.688 17.108 18.8038 17.0599 18.8913 16.9727C18.9783 16.8859 19.0261 16.7701 19.0261 16.6463V13.1093C19.0261 12.9647 19.1432 12.8474 19.288 12.8474C19.4327 12.8474 19.5499 12.9645 19.5499 13.1093L19.5496 15.7791C19.5496 16.0338 19.7567 16.2409 20.0111 16.2409C20.1349 16.2409 20.2507 16.1929 20.3376 16.1061C20.4248 16.0189 20.4725 15.9028 20.4725 15.7791L20.4727 10.3676C20.4727 8.56292 19.1368 7.09434 17.4947 7.09434L17.4948 7.09429Z" fill="#4CAF4F"/>
<path d="M20.0111 16.7644V15.8363H23.2901L20.4975 17.5549L20.0111 16.7644ZM19.5496 16.6442H18.6215V15.0935L19.9882 15.8263L19.5496 16.6442ZM19.2612 17.343L18.6049 16.6868L18.6058 16.6859L19.2612 17.343ZM18.097 17.5082L17.1704 17.454L17.2558 15.9933L18.5408 16.6931L18.097 17.5082ZM17.8144 18.1471L18.471 18.803L18.4707 18.8033L17.8144 18.1471ZM16.1379 17.508L15.6966 16.6915L16.978 15.999L17.0643 17.453L16.1379 17.508ZM15.6037 17.6293L15.5442 18.5555L15.543 18.5555L15.6037 17.6293ZM14.6852 12.1842L13.8814 11.7203L15.6133 8.71985V12.1842H14.6852ZM14.1806 13.0585L13.3759 12.596L13.3768 12.5945L14.1806 13.0585ZM12.7009 13.4563L12.2395 14.2616L12.2354 14.2592L12.7009 13.4563ZM12.287 12.9168L13.1833 12.6761L13.1836 12.6772L12.287 12.9168ZM12.3762 12.2427L11.573 11.7777L11.8411 11.3146H12.3762V12.2427ZM14.128 9.20822L14.9732 9.59148L14.955 9.63167L14.9331 9.66995L14.128 9.20822ZM14.2031 9.03997L13.3551 8.66284L13.3551 8.66283L14.2031 9.03997ZM14.2774 8.84941L15.1522 9.15928L15.1521 9.15953L14.2774 8.84941ZM20.9961 10.3675L20.068 10.3675V10.3675H20.9961ZM20.9963 15.779L21.9244 15.779V15.779H20.9963ZM20.7082 16.476L21.365 17.1316L21.3644 17.1323L20.7082 16.476ZM20.0111 16.7645V17.6926H16.7321L19.5246 15.974L20.0111 16.7645ZM17.4948 7.09429V6.16619H18.7252L18.3871 7.34925L17.4948 7.09429ZM14.7708 9.0245L15.6457 9.33442L15.6449 9.33641L14.7708 9.0245ZM14.6816 9.25277L15.5295 9.63023L15.5293 9.63072L14.6816 9.25277ZM14.5578 9.50056L15.2567 10.1112L14.6496 10.8061L13.9512 10.203L14.5578 9.50056ZM14.5542 9.49745L13.7342 9.06285L14.2795 8.03389L15.1608 8.79505L14.5542 9.49745ZM12.8295 12.5048L13.6332 12.9689L13.6328 12.9696L12.8295 12.5048ZM12.7926 12.7811L11.8964 13.0224L11.8956 13.0195L12.7926 12.7811ZM12.9622 13.0023L12.4999 13.8071L12.4982 13.8061L12.9622 13.0023ZM13.7267 12.797L12.9218 12.335L12.923 12.3328L13.7267 12.797ZM14.7203 11.0767L13.9167 10.6125L13.9172 10.6115L14.7203 11.0767ZM15.0149 10.955L14.7747 11.8515L14.7724 11.8509L15.0149 10.955ZM15.6381 17.107L15.589 18.0339L15.5771 18.0331L15.6381 17.107ZM15.9974 16.973L16.6536 17.6293L16.653 17.6298L15.9974 16.973ZM16.656 13.1095H17.584V13.1095L16.656 13.1095ZM16.6558 17.4505H15.7277V17.4504L16.6558 17.4505ZM17.4443 17.7773L18.1011 18.4329L18.0999 18.4342L17.4443 17.7773ZM18.1029 13.1095H19.031V13.1096L18.1029 13.1095ZM18.1027 16.6058H17.1746V16.6058L18.1027 16.6058ZM18.8913 16.9727L19.547 17.6295L19.5464 17.6301L18.8913 16.9727ZM19.5499 13.1093H20.478V13.1094L19.5499 13.1093ZM19.5496 15.7791H18.6215V15.779L19.5496 15.7791ZM20.3376 16.1061L20.9938 16.7624L20.9932 16.763L20.3376 16.1061ZM20.4725 15.7791H19.5444V15.7791L20.4725 15.7791ZM20.4727 10.3676H21.4008V10.3677L20.4727 10.3676ZM17.4947 7.09434V8.02243H16.2643L16.6024 6.83937L17.4947 7.09434ZM20.0111 17.6925C19.6693 17.6925 19.3642 17.5979 19.111 17.4622L19.9882 15.8263C20.0002 15.8327 20.0078 15.8352 20.0108 15.836C20.0134 15.8367 20.0131 15.8363 20.0111 15.8363V17.6925ZM20.4777 16.6442V16.6462H18.6215V16.6442H20.4777ZM20.4777 16.6462C20.4777 17.1553 20.2779 17.6397 19.9165 18.0001L18.6058 16.6859C18.6124 16.6793 18.6157 16.6736 18.6176 16.669C18.6195 16.6643 18.6215 16.6572 18.6215 16.6462H20.4777ZM19.9174 17.9993C19.5572 18.3594 19.0737 18.5596 18.5643 18.5596V16.7034C18.575 16.7034 18.582 16.7015 18.5868 16.6995C18.5915 16.6975 18.5976 16.694 18.6049 16.6868L19.9174 17.9993ZM18.5643 18.5596C18.2181 18.5596 17.9092 18.4627 17.6531 18.3232L18.5408 16.6931C18.5529 16.6997 18.5606 16.7022 18.5636 16.703C18.5662 16.7037 18.566 16.7034 18.5643 16.7034V18.5596ZM19.0235 17.5623C18.9968 18.0191 18.8114 18.4622 18.471 18.803L17.1578 17.4912C17.1612 17.4877 17.1632 17.4847 17.1649 17.4808C17.1667 17.4767 17.1696 17.4682 17.1704 17.454L19.0235 17.5623ZM18.4707 18.8033C18.1104 19.1636 17.6268 19.3636 17.1174 19.3636V17.5075C17.1282 17.5075 17.1353 17.5055 17.14 17.5035C17.1448 17.5016 17.1509 17.4981 17.1581 17.4908L18.4707 18.8033ZM17.1174 19.3636C16.0928 19.3636 15.2706 18.5595 15.2114 17.563L17.0643 17.453C17.0653 17.4688 17.0717 17.4826 17.0832 17.4935C17.0887 17.4988 17.0944 17.5022 17.0993 17.5042C17.1036 17.506 17.1091 17.5075 17.1174 17.5075V19.3636ZM16.5792 18.3245C16.2794 18.4865 15.9239 18.5799 15.5442 18.5555L15.6632 16.7032C15.6633 16.7032 15.6652 16.7034 15.6701 16.7022C15.6754 16.701 15.6844 16.6981 15.6966 16.6915L16.5792 18.3245ZM15.543 18.5555C14.5125 18.4879 13.7571 17.6115 13.7571 16.6159H15.6133C15.6133 16.6472 15.6247 16.6714 15.639 16.6872C15.6529 16.7025 15.6624 16.7031 15.6645 16.7032L15.543 18.5555ZM13.7571 16.6159V12.1842H15.6133V16.6159H13.7571ZM15.489 12.6482L14.9844 13.5224L13.3768 12.5945L13.8814 11.7203L15.489 12.6482ZM14.9852 13.521C14.6266 14.1449 13.9591 14.5285 13.2412 14.5285V12.6724C13.2981 12.6724 13.3502 12.6408 13.3759 12.596L14.9852 13.521ZM13.2412 14.5285C12.8903 14.5285 12.5448 14.4365 12.2395 14.2616L13.1623 12.651C13.1873 12.6653 13.2147 12.6724 13.2412 12.6724V14.5285ZM12.2354 14.2592C11.8187 14.0177 11.5154 13.6245 11.3903 13.1563L13.1836 12.6772C13.1828 12.674 13.1805 12.6684 13.176 12.6626C13.1715 12.6568 13.1674 12.654 13.1664 12.6534L12.2354 14.2592ZM11.3906 13.1574C11.265 12.6895 11.3308 12.196 11.573 11.7777L13.1794 12.7078C13.1807 12.7055 13.183 12.7002 13.184 12.6927C13.185 12.6852 13.1841 12.6792 13.1833 12.6761L11.3906 13.1574ZM12.3762 11.3146C11.9209 11.434 11.5802 11.7656 11.5776 11.7698C11.5768 11.7713 11.5755 11.7734 11.5751 11.7741C11.5749 11.7745 11.5745 11.7752 11.5743 11.7754C11.5743 11.7755 11.5741 11.7758 11.574 11.7759C11.5739 11.7761 11.574 11.7761 11.5743 11.7755C11.5749 11.7744 11.576 11.7725 11.5775 11.7699C11.5806 11.7646 11.5852 11.7567 11.5912 11.7462C11.6033 11.7253 11.6211 11.6946 11.6437 11.6553C11.6891 11.5768 11.7539 11.4645 11.8321 11.3291C11.9885 11.0584 12.198 10.6956 12.4106 10.3273C12.8366 9.58941 13.2734 8.83275 13.3229 8.74649L14.9331 9.66995C14.8818 9.7593 14.4428 10.5199 14.0181 11.2554C13.8054 11.6238 13.5959 11.9866 13.4395 12.2574C13.3613 12.3928 13.2964 12.5052 13.251 12.5838C13.2283 12.623 13.2105 12.6539 13.1983 12.6749C13.1923 12.6855 13.1876 12.6936 13.1843 12.6992C13.1828 12.7019 13.1814 12.7042 13.1805 12.7059C13.18 12.7066 13.1795 12.7076 13.1789 12.7085C13.1787 12.7088 13.1781 12.7099 13.1774 12.7111C13.177 12.7119 13.1757 12.7141 13.1748 12.7156C13.1722 12.7199 12.8314 13.0515 12.3762 13.1708V11.3146ZM13.2827 8.82496C13.2929 8.80243 13.3253 8.72979 13.3551 8.66284L15.0511 9.41709C15.0228 9.48069 14.987 9.56121 14.9732 9.59148L13.2827 8.82496ZM13.3551 8.66283C13.368 8.63382 13.3822 8.59676 13.4026 8.53928L15.1521 9.15953C15.1269 9.23062 15.0936 9.32147 15.0511 9.4171L13.3551 8.66283ZM13.4025 8.53953C14.0311 6.76491 15.6133 5.64265 17.4947 5.64265V7.49884C16.4027 7.49884 15.5193 8.12278 15.1522 9.15928L13.4025 8.53953ZM17.4947 5.64265C20.0073 5.64265 21.9242 7.83359 21.9242 10.3675H20.068C20.068 8.71432 18.8435 7.49884 17.4947 7.49884V5.64265ZM21.9242 10.3675L21.9244 15.779L20.0682 15.779L20.068 10.3675L21.9242 10.3675ZM21.9244 15.779C21.9244 16.288 21.7247 16.7713 21.365 17.1316L20.0513 15.8203C20.0586 15.813 20.0622 15.8067 20.0642 15.8019C20.0662 15.797 20.0682 15.7898 20.0682 15.779H21.9244ZM21.3644 17.1323C21.0042 17.4925 20.5205 17.6926 20.0111 17.6926V15.8364C20.022 15.8364 20.0291 15.8344 20.0338 15.8324C20.0386 15.8305 20.0447 15.827 20.0519 15.8197L21.3644 17.1323ZM19.5246 15.974L19.5247 15.974L20.4975 17.5549L20.4975 17.5549L19.5246 15.974ZM17.4948 8.02238C16.6124 8.02238 15.9432 8.49442 15.6457 9.33442L13.896 8.71458C14.4548 7.13733 15.8221 6.16619 17.4948 6.16619V8.02238ZM15.6449 9.33641C15.6157 9.41851 15.5776 9.5222 15.5295 9.63023L13.8338 8.87532C13.8522 8.83379 13.8713 8.78398 13.8967 8.71258L15.6449 9.33641ZM15.5293 9.63072C15.4868 9.72604 15.4512 9.80654 15.4239 9.86107C15.407 9.89491 15.3796 9.94707 15.3399 10.0048C15.2997 10.0634 15.2599 10.1075 15.2567 10.1112L13.8589 8.88991C13.8611 8.88742 13.8604 8.88823 13.8593 8.8895C13.8579 8.89115 13.8543 8.89536 13.8495 8.90113C13.8446 8.9071 13.8384 8.91482 13.8315 8.924C13.8245 8.93326 13.8173 8.94311 13.8102 8.9535C13.7956 8.97466 13.7845 8.99319 13.7765 9.0072C13.7691 9.02029 13.7645 9.02934 13.7635 9.03138C13.7624 9.03349 13.7631 9.03225 13.7662 9.0255C13.7693 9.01895 13.7736 9.00953 13.7798 8.99582C13.786 8.98222 13.7934 8.9658 13.8024 8.94551C13.8115 8.92525 13.8218 8.90204 13.834 8.87483L15.5293 9.63072ZM13.9512 10.203L13.9476 10.1999L15.1608 8.79505L15.1644 8.79816L13.9512 10.203ZM15.3743 9.93205C15.229 10.2061 14.8143 10.9239 13.6332 12.9689L12.0258 12.0406C13.2236 9.96678 13.6098 9.29747 13.7342 9.06285L15.3743 9.93205ZM13.6328 12.9696C13.7071 12.8413 13.7278 12.6864 13.6896 12.5427L11.8956 13.0195C11.8076 12.6881 11.8542 12.3372 12.0262 12.0399L13.6328 12.9696ZM13.6888 12.5398C13.6506 12.398 13.5567 12.2739 13.4262 12.1985L12.4982 13.8061C12.2 13.634 11.9851 13.3518 11.8964 13.0224L13.6888 12.5398ZM13.4244 12.1975C13.3188 12.1368 13.216 12.1372 13.1451 12.1563C13.0744 12.1754 12.9838 12.2269 12.9218 12.335L14.5316 13.259C14.1272 13.9637 13.2028 14.2108 12.4999 13.8071L13.4244 12.1975ZM12.923 12.3328L13.9167 10.6125L15.524 11.5409L14.5304 13.2612L12.923 12.3328ZM13.9172 10.6115C14.1853 10.1487 14.7325 9.91708 15.2573 10.0591L14.7724 11.8509C15.067 11.9306 15.3741 11.7997 15.5234 11.5419L13.9172 10.6115ZM15.255 10.0585C15.7757 10.198 16.137 10.6699 16.137 11.2079H14.2808C14.2808 11.5091 14.483 11.7733 14.7747 11.8515L15.255 10.0585ZM16.137 11.2079V16.616H14.2808V11.2079H16.137ZM16.137 16.616C16.137 16.5103 16.0978 16.4141 16.0335 16.3405C15.9693 16.2671 15.8559 16.1912 15.699 16.1809L15.5771 18.0331C14.7958 17.9817 14.2808 17.3011 14.2808 16.616H16.137ZM15.6871 16.1802C15.5774 16.1744 15.4435 16.2146 15.3417 16.3162L16.653 17.6298C16.36 17.9223 15.9716 18.054 15.589 18.0338L15.6871 16.1802ZM15.3411 16.3167C15.253 16.4048 15.2041 16.5255 15.2041 16.6465H17.0603C17.0603 17.0151 16.9155 17.3674 16.6536 17.6293L15.3411 16.3167ZM15.2041 16.6465V13.1095H17.0603V16.6465H15.2041ZM15.2041 13.1095C15.2041 12.4523 15.7368 11.9195 16.3941 11.9195V13.7757C16.762 13.7757 17.0603 13.4774 17.0603 13.1095H15.2041ZM16.3941 11.9195C17.0509 11.9195 17.584 12.4518 17.584 13.1095H15.7279C15.7279 13.4777 16.0265 13.7757 16.3941 13.7757V11.9195ZM17.584 13.1095L17.5839 17.4505L15.7277 17.4504L15.7279 13.1095L17.584 13.1095ZM17.5839 17.4505C17.5839 17.1924 17.3755 16.984 17.1174 16.984V18.8402C16.3503 18.8402 15.7277 18.2176 15.7277 17.4505H17.5839ZM17.1174 16.984C16.9966 16.984 16.8765 17.0327 16.7886 17.1204L18.0999 18.4342C17.8378 18.6957 17.4855 18.8402 17.1174 18.8402V16.984ZM16.7874 17.1217C16.6996 17.2096 16.651 17.3297 16.651 17.4505H18.5072C18.5072 17.8185 18.3627 18.1709 18.1011 18.4329L16.7874 17.1217ZM16.651 17.4505V13.1095H18.5072V17.4505H16.651ZM16.651 13.1095C16.651 12.4527 17.1832 11.9195 17.841 11.9195V13.7757C18.2091 13.7757 18.5072 13.4771 18.5072 13.1095H16.651ZM17.841 11.9195C18.4978 11.9195 19.031 12.4518 19.031 13.1095H17.1748C17.1748 13.4777 17.4734 13.7757 17.841 13.7757V11.9195ZM19.031 13.1096L19.0308 16.6059L17.1746 16.6058L17.1748 13.1095L19.031 13.1096ZM19.0308 16.6058V16.6465H17.1746V16.6058H19.0308ZM19.0308 16.6465C19.0308 16.3878 18.8219 16.1799 18.5645 16.1799V18.036C17.7977 18.036 17.1746 17.4139 17.1746 16.6465H19.0308ZM18.5645 16.1799C18.4412 16.1799 18.3218 16.23 18.2363 16.3152L19.5464 17.6301C19.2857 17.8898 18.9348 18.036 18.5645 18.036V16.1799ZM18.2357 16.3158C18.1469 16.4044 18.098 16.5255 18.098 16.6463H19.9542C19.9542 17.0148 19.8096 17.3674 19.547 17.6295L18.2357 16.3158ZM18.098 16.6463V13.1093H19.9542V16.6463H18.098ZM18.098 13.1093C18.098 12.4525 18.6303 11.9193 19.288 11.9193V13.7755C19.6562 13.7755 19.9542 13.4769 19.9542 13.1093H18.098ZM19.288 11.9193C19.9449 11.9193 20.478 12.4516 20.478 13.1093H18.6218C18.6218 13.4775 18.9205 13.7755 19.288 13.7755V11.9193ZM20.478 13.1094L20.4777 15.7792L18.6215 15.779L18.6218 13.1092L20.478 13.1094ZM20.4777 15.7791C20.4777 15.5217 20.2697 15.3128 20.0111 15.3128V17.169C19.2437 17.169 18.6215 16.5459 18.6215 15.7791H20.4777ZM20.0111 15.3128C19.8893 15.3128 19.7692 15.3621 19.6819 15.4493L20.9932 16.763C20.7321 17.0236 20.3804 17.169 20.0111 17.169V15.3128ZM19.6813 15.4499C19.5929 15.5383 19.5444 15.6589 19.5444 15.7791H21.4006C21.4006 16.1467 21.2567 16.4995 20.9938 16.7624L19.6813 15.4499ZM19.5444 15.7791L19.5446 10.3676L21.4008 10.3677L21.4006 15.7792L19.5444 15.7791ZM19.5446 10.3676C19.5446 8.99091 18.5436 8.02243 17.4947 8.02243V6.16625C19.7301 6.16625 21.4008 8.13493 21.4008 10.3676H19.5446ZM16.6024 6.83937L16.6024 6.83932L18.3871 7.34925L18.3871 7.34931L16.6024 6.83937Z" fill="#4CAF4F" mask="url(#path-1-inside-1_211_2338)"/>
<path d="M8.63086 18.5525L8.5791 18.5251C8.56683 18.5473 8.53238 18.6092 8.48145 18.7009C8.49954 18.7099 8.51786 18.7175 8.53613 18.7244C8.56728 18.6682 8.59851 18.6108 8.63086 18.5525Z" fill="#4CAF4F" stroke="#4CAF4F" stroke-width="0.928093"/>
<mask id="path-4-inside-2_211_2338" fill="white">
<path d="M27.8812 25.8225C27.3979 26.6285 26.6031 27.1802 25.6429 27.3764C24.6912 27.5704 23.6904 27.3914 22.8242 26.8721L18.1835 24.0882C17.9577 23.9527 17.7979 23.7375 17.734 23.482C17.6705 23.227 17.7102 22.9622 17.8455 22.7365C17.9299 22.5955 18.0483 22.4843 18.1856 22.4021L18.1843 22.4013C17.9585 22.2658 17.7988 22.0507 17.7351 21.7955C17.6712 21.5403 17.7109 21.2753 17.8463 21.0494C17.9336 20.9042 18.0531 20.7907 18.1896 20.7102C17.9915 20.5739 17.8488 20.376 17.7901 20.1412C17.7261 19.8858 17.7658 19.621 17.9013 19.3953C18.0366 19.1695 18.2519 19.0099 18.5071 18.9461C18.5868 18.9261 18.6676 18.9163 18.7476 18.9163C18.9047 18.9164 19.0589 18.9563 19.2006 19.0304C19.2093 18.8469 19.2639 18.6667 19.3711 18.512C19.6652 18.0878 20.2542 17.9704 20.7131 18.2457L24.5133 20.5252L24.0235 19.6429C23.8355 19.3061 23.8424 18.8905 24.0417 18.5583C24.1387 18.3966 24.2775 18.2623 24.4433 18.1693C24.5796 18.0938 24.7272 18.0581 24.8728 18.0581C25.1855 18.0583 25.4892 18.2232 25.6509 18.5153C26.2144 19.5306 27.2777 21.4454 27.3525 21.579C27.3684 21.6022 27.4164 21.671 27.4576 21.7296C27.4968 21.7852 27.5391 21.8383 27.5829 21.8911C28.5318 23.0413 28.6462 24.5476 27.8812 25.8225L27.8812 25.8225ZM27.1789 22.2249C27.1267 22.1617 27.0755 22.0973 27.029 22.0309C26.8873 21.8298 26.8837 21.8246 26.873 21.7719C26.7074 21.4979 26.3033 20.7704 25.1926 18.7694C25.0952 18.5937 24.8738 18.5296 24.6975 18.627C24.6107 18.6756 24.541 18.7433 24.4902 18.8281C24.3872 18.9998 24.3833 19.2143 24.4805 19.3884L25.4445 21.1253C25.502 21.2289 25.4829 21.3582 25.3977 21.4405C25.3128 21.523 25.1829 21.5374 25.0809 21.4767L20.4436 18.6947C20.225 18.5637 19.9368 18.615 19.8017 18.8102C19.724 18.9224 19.6992 19.0562 19.7317 19.1869C19.7615 19.3063 19.8365 19.407 19.9426 19.4706C19.9429 19.4708 19.9431 19.4711 19.9434 19.4712L22.9755 21.2902C23.0994 21.3647 23.1396 21.5254 23.0652 21.6496C22.9907 21.7734 22.8302 21.8139 22.7059 21.7393L18.9834 19.5062C18.8778 19.4429 18.7535 19.4242 18.6341 19.4542C18.5144 19.484 18.4137 19.5588 18.3502 19.6649C18.2866 19.7707 18.2682 19.8948 18.2977 20.0142C18.3276 20.1336 18.4025 20.2345 18.5085 20.2981L19.2328 20.7325L22.2308 22.5312C22.3547 22.6057 22.3949 22.7664 22.3205 22.8905C22.246 23.0143 22.0855 23.0547 21.9612 22.9802L18.9285 21.1607C18.7104 21.0295 18.4263 21.1007 18.2951 21.3191C18.2315 21.4251 18.2131 21.5492 18.2426 21.6686C18.2725 21.788 18.3474 21.8887 18.4535 21.9525L19.1971 22.3985L21.4862 23.772C21.6102 23.8464 21.6504 24.0071 21.5759 24.1313C21.5015 24.2551 21.3409 24.2958 21.2166 24.221L18.9275 22.8475C18.8219 22.7842 18.6981 22.7655 18.578 22.7956C18.4586 22.8254 18.3576 22.9002 18.2941 23.006C18.2307 23.1119 18.2121 23.2362 18.2417 23.3554C18.2715 23.4748 18.3465 23.5755 18.4526 23.6393L23.0933 26.4232C23.8463 26.875 24.7148 27.0314 25.5377 26.8635C26.3521 26.6972 27.0248 26.232 27.4319 25.5534C28.0896 24.4576 27.995 23.2132 27.1791 22.2248L27.1789 22.2249Z"/>
</mask>
<path d="M27.8812 25.8225C27.3979 26.6285 26.6031 27.1802 25.6429 27.3764C24.6912 27.5704 23.6904 27.3914 22.8242 26.8721L18.1835 24.0882C17.9577 23.9527 17.7979 23.7375 17.734 23.482C17.6705 23.227 17.7102 22.9622 17.8455 22.7365C17.9299 22.5955 18.0483 22.4843 18.1856 22.4021L18.1843 22.4013C17.9585 22.2658 17.7988 22.0507 17.7351 21.7955C17.6712 21.5403 17.7109 21.2753 17.8463 21.0494C17.9336 20.9042 18.0531 20.7907 18.1896 20.7102C17.9915 20.5739 17.8488 20.376 17.7901 20.1412C17.7261 19.8858 17.7658 19.621 17.9013 19.3953C18.0366 19.1695 18.2519 19.0099 18.5071 18.9461C18.5868 18.9261 18.6676 18.9163 18.7476 18.9163C18.9047 18.9164 19.0589 18.9563 19.2006 19.0304C19.2093 18.8469 19.2639 18.6667 19.3711 18.512C19.6652 18.0878 20.2542 17.9704 20.7131 18.2457L24.5133 20.5252L24.0235 19.6429C23.8355 19.3061 23.8424 18.8905 24.0417 18.5583C24.1387 18.3966 24.2775 18.2623 24.4433 18.1693C24.5796 18.0938 24.7272 18.0581 24.8728 18.0581C25.1855 18.0583 25.4892 18.2232 25.6509 18.5153C26.2144 19.5306 27.2777 21.4454 27.3525 21.579C27.3684 21.6022 27.4164 21.671 27.4576 21.7296C27.4968 21.7852 27.5391 21.8383 27.5829 21.8911C28.5318 23.0413 28.6462 24.5476 27.8812 25.8225L27.8812 25.8225ZM27.1789 22.2249C27.1267 22.1617 27.0755 22.0973 27.029 22.0309C26.8873 21.8298 26.8837 21.8246 26.873 21.7719C26.7074 21.4979 26.3033 20.7704 25.1926 18.7694C25.0952 18.5937 24.8738 18.5296 24.6975 18.627C24.6107 18.6756 24.541 18.7433 24.4902 18.8281C24.3872 18.9998 24.3833 19.2143 24.4805 19.3884L25.4445 21.1253C25.502 21.2289 25.4829 21.3582 25.3977 21.4405C25.3128 21.523 25.1829 21.5374 25.0809 21.4767L20.4436 18.6947C20.225 18.5637 19.9368 18.615 19.8017 18.8102C19.724 18.9224 19.6992 19.0562 19.7317 19.1869C19.7615 19.3063 19.8365 19.407 19.9426 19.4706C19.9429 19.4708 19.9431 19.4711 19.9434 19.4712L22.9755 21.2902C23.0994 21.3647 23.1396 21.5254 23.0652 21.6496C22.9907 21.7734 22.8302 21.8139 22.7059 21.7393L18.9834 19.5062C18.8778 19.4429 18.7535 19.4242 18.6341 19.4542C18.5144 19.484 18.4137 19.5588 18.3502 19.6649C18.2866 19.7707 18.2682 19.8948 18.2977 20.0142C18.3276 20.1336 18.4025 20.2345 18.5085 20.2981L19.2328 20.7325L22.2308 22.5312C22.3547 22.6057 22.3949 22.7664 22.3205 22.8905C22.246 23.0143 22.0855 23.0547 21.9612 22.9802L18.9285 21.1607C18.7104 21.0295 18.4263 21.1007 18.2951 21.3191C18.2315 21.4251 18.2131 21.5492 18.2426 21.6686C18.2725 21.788 18.3474 21.8887 18.4535 21.9525L19.1971 22.3985L21.4862 23.772C21.6102 23.8464 21.6504 24.0071 21.5759 24.1313C21.5015 24.2551 21.3409 24.2958 21.2166 24.221L18.9275 22.8475C18.8219 22.7842 18.6981 22.7655 18.578 22.7956C18.4586 22.8254 18.3576 22.9002 18.2941 23.006C18.2307 23.1119 18.2121 23.2362 18.2417 23.3554C18.2715 23.4748 18.3465 23.5755 18.4526 23.6393L23.0933 26.4232C23.8463 26.875 24.7148 27.0314 25.5377 26.8635C26.3521 26.6972 27.0248 26.232 27.4319 25.5534C28.0896 24.4576 27.995 23.2132 27.1791 22.2248L27.1789 22.2249Z" fill="#4CAF4F"/>
<path d="M27.8812 25.8225L27.5817 24.9441L29.9804 24.1263L28.6772 26.2998L27.8812 25.8225ZM25.6429 27.3764L25.8286 28.2857L25.8283 28.2857L25.6429 27.3764ZM22.8242 26.8721L22.3469 27.668L22.3467 27.6679L22.8242 26.8721ZM18.1835 24.0882L18.6609 23.2923L18.6609 23.2923L18.1835 24.0882ZM17.734 23.482L16.8337 23.7074L16.8334 23.7062L17.734 23.482ZM17.8455 22.7365L18.6417 23.2133L18.6415 23.2137L17.8455 22.7365ZM18.1856 22.4021L18.6775 21.6151L19.9641 22.4192L18.6623 23.1985L18.1856 22.4021ZM18.1843 22.4013L18.6617 21.6054L18.669 21.6098L18.6762 21.6143L18.1843 22.4013ZM17.7351 21.7955L18.6354 21.5699L18.6357 21.571L17.7351 21.7955ZM17.8463 21.0494L17.0503 20.5721L17.0509 20.5712L17.8463 21.0494ZM18.1896 20.7102L18.7156 19.9456L19.9142 20.7701L18.6612 21.5095L18.1896 20.7102ZM17.7901 20.1412L18.6904 19.9157L18.6905 19.9161L17.7901 20.1412ZM17.9013 19.3953L18.6974 19.8723L18.697 19.873L17.9013 19.3953ZM18.5071 18.9461L18.733 19.8463L18.7321 19.8465L18.5071 18.9461ZM18.7476 18.9163V17.9882L18.7486 17.9882L18.7476 18.9163ZM19.2006 19.0304L20.1276 19.0743L20.0588 20.5269L18.7703 19.8528L19.2006 19.0304ZM19.3711 18.512L20.1339 19.0407L20.1338 19.0409L19.3711 18.512ZM20.7131 18.2457L20.2357 19.0416L20.2356 19.0415L20.7131 18.2457ZM24.5133 20.5252L25.3247 20.0747L27.0058 23.1025L24.0359 21.3211L24.5133 20.5252ZM24.0235 19.6429L24.8339 19.1907L24.8349 19.1924L24.0235 19.6429ZM24.0417 18.5583L23.2457 18.0809L23.246 18.0805L24.0417 18.5583ZM24.4433 18.1693L23.9893 17.3598L23.9938 17.3573L24.4433 18.1693ZM24.8728 18.0581V17.13L24.8732 17.13L24.8728 18.0581ZM25.6509 18.5153L24.8394 18.9657L24.8389 18.9648L25.6509 18.5153ZM27.3525 21.579L26.5878 22.1051L26.5635 22.0696L26.5425 22.0321L27.3525 21.579ZM27.4576 21.7296L26.6991 22.2644L26.6984 22.2634L27.4576 21.7296ZM27.5829 21.8911L28.2973 21.2987L28.2988 21.3005L27.5829 21.8911ZM27.8812 25.8225L28.1807 26.701L25.7808 27.5191L27.0854 25.345L27.8812 25.8225ZM27.1789 22.2249L27.2708 23.1484L26.7784 23.1974L26.4633 22.8159L27.1789 22.2249ZM27.029 22.0309L27.7876 21.4962L27.7888 21.498L27.029 22.0309ZM26.873 21.7719L27.6673 21.2918L27.7507 21.4298L27.7826 21.5877L26.873 21.7719ZM25.1926 18.7694L24.3811 19.2198L24.381 19.2195L25.1926 18.7694ZM24.6975 18.627L24.2443 17.8171L24.2486 17.8147L24.6975 18.627ZM24.4902 18.8281L25.2862 19.3053L25.2861 19.3055L24.4902 18.8281ZM24.4805 19.3884L25.2909 18.936L25.292 18.9381L24.4805 19.3884ZM25.4445 21.1253L24.6331 21.5759L24.633 21.5757L25.4445 21.1253ZM25.3977 21.4405L24.7512 20.7746L24.7525 20.7734L25.3977 21.4405ZM25.0809 21.4767L24.6064 22.2744L24.6035 22.2726L25.0809 21.4767ZM20.4436 18.6947L20.9207 17.8987L20.921 17.8989L20.4436 18.6947ZM19.8017 18.8102L20.5647 19.3386L20.5645 19.3388L19.8017 18.8102ZM19.7317 19.1869L18.8313 19.412L18.831 19.4106L19.7317 19.1869ZM19.9426 19.4706L19.5274 20.3007L19.4957 20.2848L19.4653 20.2665L19.9426 19.4706ZM19.9434 19.4712L20.3585 18.6412L20.3903 18.6571L20.4208 18.6754L19.9434 19.4712ZM22.9755 21.2902L23.4529 20.4944L23.4533 20.4946L22.9755 21.2902ZM23.0652 21.6496L23.8611 22.1269L23.8605 22.1278L23.0652 21.6496ZM22.7059 21.7393L23.1833 20.9434L23.1835 20.9435L22.7059 21.7393ZM18.9834 19.5062L19.4605 18.7101L19.4608 18.7103L18.9834 19.5062ZM18.6341 19.4542L18.8603 20.3543L18.8586 20.3547L18.6341 19.4542ZM18.3502 19.6649L19.1467 20.1413L19.1455 20.1433L18.3502 19.6649ZM18.2977 20.0142L17.3974 20.2393L17.3968 20.237L18.2977 20.0142ZM18.5085 20.2981L18.0311 21.094L18.0306 21.0937L18.5085 20.2981ZM19.2328 20.7325L19.7102 19.9366L19.7103 19.9367L19.2328 20.7325ZM22.2308 22.5312L22.7083 21.7354L22.7086 21.7356L22.2308 22.5312ZM22.3205 22.8905L23.1164 23.3679L23.1158 23.3688L22.3205 22.8905ZM21.9612 22.9802L21.4843 23.7764L21.4837 23.7761L21.9612 22.9802ZM18.9285 21.1607L18.451 21.9566L18.4501 21.956L18.9285 21.1607ZM18.2951 21.3191L19.0907 21.797L19.0907 21.797L18.2951 21.3191ZM18.2426 21.6686L17.3423 21.8937L17.3417 21.8914L18.2426 21.6686ZM18.4535 21.9525L17.9761 22.7483L17.9753 22.7479L18.4535 21.9525ZM19.1971 22.3985L19.6745 21.6027L19.6746 21.6027L19.1971 22.3985ZM21.4862 23.772L21.9637 22.9761L21.964 22.9763L21.4862 23.772ZM21.5759 24.1313L22.3719 24.6086L22.3713 24.6096L21.5759 24.1313ZM21.2166 24.221L21.6941 23.4251L21.6951 23.4257L21.2166 24.221ZM18.9275 22.8475L19.4046 22.0515L19.405 22.0517L18.9275 22.8475ZM18.578 22.7956L18.3529 21.8952L18.3529 21.8952L18.578 22.7956ZM18.2941 23.006L17.498 22.529L17.4983 22.5285L18.2941 23.006ZM18.2417 23.3554L17.3413 23.5805L17.3408 23.5785L18.2417 23.3554ZM18.4526 23.6393L17.9751 24.4352L17.9743 24.4347L18.4526 23.6393ZM23.0933 26.4232L23.5707 25.6273L23.5707 25.6274L23.0933 26.4232ZM25.5377 26.8635L25.7234 27.7729L25.7233 27.7729L25.5377 26.8635ZM27.4319 25.5534L26.6359 25.076L26.6361 25.0757L27.4319 25.5534ZM27.1791 22.2248L27.0872 21.3013L27.5798 21.2523L27.8949 21.634L27.1791 22.2248ZM28.6772 26.2998C28.0537 27.3397 27.0314 28.04 25.8286 28.2857L25.4571 26.467C26.1748 26.3205 26.7422 25.9174 27.0852 25.3452L28.6772 26.2998ZM25.8283 28.2857C24.6397 28.5281 23.4035 28.3015 22.3469 27.668L23.3014 26.0761C23.9773 26.4813 24.7428 26.6127 25.4575 26.467L25.8283 28.2857ZM22.3467 27.6679L17.706 24.884L18.6609 23.2923L23.3016 26.0762L22.3467 27.6679ZM17.7061 24.884C17.2696 24.6222 16.9575 24.2021 16.8337 23.7074L18.6343 23.2567C18.6368 23.2667 18.6403 23.273 18.6434 23.2772C18.6466 23.2814 18.6517 23.2867 18.6609 23.2923L17.7061 24.884ZM16.8334 23.7062C16.7104 23.2121 16.7882 22.6951 17.0495 22.2593L18.6415 23.2137C18.6359 23.223 18.6339 23.2303 18.6331 23.2356C18.6323 23.2409 18.6322 23.2481 18.6346 23.2579L16.8334 23.7062ZM17.0492 22.2597C17.2213 21.9723 17.4565 21.7569 17.709 21.6058L18.6623 23.1985C18.651 23.2052 18.645 23.2105 18.6425 23.2128C18.6404 23.215 18.6407 23.2151 18.6417 23.2133L17.0492 22.2597ZM17.6937 23.1891L17.6924 23.1883L18.6762 21.6143L18.6775 21.6151L17.6937 23.1891ZM17.7069 23.1972C17.2706 22.9355 16.9581 22.5152 16.8346 22.02L18.6357 21.571C18.638 21.5804 18.6413 21.5863 18.6443 21.5904C18.6474 21.5945 18.6525 21.5999 18.6617 21.6054L17.7069 23.1972ZM16.8349 22.0211C16.7108 21.526 16.7889 21.0083 17.0503 20.5721L18.6423 21.5266C18.6367 21.536 18.6346 21.5433 18.6339 21.5484C18.6331 21.5535 18.633 21.5604 18.6354 21.5699L16.8349 22.0211ZM17.0509 20.5712C17.2222 20.2862 17.4563 20.0653 17.7179 19.9109L18.6612 21.5095C18.6552 21.5131 18.6511 21.5164 18.6484 21.5191C18.6459 21.5216 18.6438 21.5242 18.6418 21.5275L17.0509 20.5712ZM17.6636 21.4749C17.2887 21.217 17.006 20.8316 16.8897 20.3662L18.6905 19.9161C18.6916 19.9204 18.693 19.9236 18.6954 19.9269C18.698 19.9306 18.7038 19.9375 18.7156 19.9456L17.6636 21.4749ZM16.8898 20.3667C16.7658 19.8716 16.8437 19.3538 17.1055 18.9176L18.697 19.873C18.6915 19.8821 18.6895 19.8891 18.6888 19.8941C18.6881 19.8991 18.6879 19.9059 18.6904 19.9157L16.8898 20.3667ZM17.1051 18.9183C17.3671 18.4811 17.7879 18.1693 18.282 18.0457L18.7321 19.8465C18.7222 19.849 18.716 19.8525 18.7119 19.8555C18.7078 19.8586 18.7027 19.8635 18.6974 19.8723L17.1051 18.9183ZM18.2811 18.046C18.4348 18.0074 18.5916 17.9882 18.7476 17.9882V19.8444C18.7436 19.8444 18.7387 19.8449 18.733 19.8463L18.2811 18.046ZM18.7486 17.9882C19.0639 17.9885 19.3645 18.0688 19.6308 18.2081L18.7703 19.8528C18.7615 19.8482 18.7552 19.8461 18.7517 19.8452C18.7483 19.8444 18.7468 19.8444 18.7467 19.8444L18.7486 17.9882ZM18.2735 18.9865C18.2895 18.649 18.3913 18.2964 18.6085 17.9831L20.1338 19.0409C20.1365 19.037 20.129 19.0448 20.1276 19.0743L18.2735 18.9865ZM18.6083 17.9833C19.1962 17.1352 20.3359 16.937 21.1906 17.4499L20.2356 19.0415C20.2085 19.0253 20.182 19.0227 20.1612 19.0268C20.1409 19.0309 20.1353 19.0387 20.1339 19.0407L18.6083 17.9833ZM21.1905 17.4498L24.9907 19.7293L24.0359 21.3211L20.2357 19.0416L21.1905 17.4498ZM23.7019 20.9757L23.212 20.0934L24.8349 19.1924L25.3247 20.0747L23.7019 20.9757ZM23.213 20.0951C22.8624 19.4668 22.8764 18.6968 23.2457 18.0809L24.8376 19.0356C24.8084 19.0843 24.8086 19.1453 24.8339 19.1907L23.213 20.0951ZM23.246 18.0805C23.427 17.7791 23.6841 17.531 23.9893 17.3598L24.8973 18.9788C24.8709 18.9935 24.8505 19.0141 24.8374 19.036L23.246 18.0805ZM23.9938 17.3573C24.2715 17.2036 24.5744 17.13 24.8728 17.13V18.9862C24.876 18.9862 24.8796 18.9858 24.8835 18.9848C24.8876 18.9838 24.8908 18.9824 24.8928 18.9813L23.9938 17.3573ZM24.8732 17.13C25.5075 17.1303 26.1303 17.4649 26.4629 18.0659L24.8389 18.9648C24.8404 18.9674 24.8428 18.9709 24.8462 18.9743C24.8495 18.9776 24.8528 18.9801 24.8558 18.9818C24.861 18.9848 24.8663 18.9862 24.8723 18.9862L24.8732 17.13ZM26.4624 18.0649C27.0265 19.0814 28.0887 20.9941 28.1625 21.126L26.5425 22.0321C26.4667 21.8967 25.4022 19.9798 24.8394 18.9657L26.4624 18.0649ZM28.1171 21.053C28.1302 21.0721 28.176 21.1378 28.2168 21.1958L26.6984 22.2634C26.6568 22.2043 26.6065 22.1323 26.5878 22.1051L28.1171 21.053ZM28.2161 21.1948C28.2353 21.222 28.2604 21.2541 28.2973 21.2987L26.8684 22.4835C26.8178 22.4225 26.7583 22.3483 26.6991 22.2644L28.2161 21.1948ZM28.2988 21.3005C29.4967 22.7527 29.6451 24.6867 28.677 26.3001L27.0854 25.345C27.6473 24.4086 27.5668 23.33 26.867 22.4817L28.2988 21.3005ZM27.5817 24.9441L27.5817 24.9441L28.1807 26.701L28.1807 26.701L27.5817 24.9441ZM26.4633 22.8159C26.4046 22.7449 26.3359 22.6591 26.2691 22.5637L27.7888 21.498C27.8151 21.5355 27.8488 21.5786 27.8944 21.6338L26.4633 22.8159ZM26.2703 22.5655C26.2119 22.4826 26.1491 22.3946 26.1074 22.3256C26.0795 22.2794 26.0422 22.212 26.0107 22.1261C25.98 22.0425 25.9664 21.9709 25.9634 21.9561L27.7826 21.5877C27.785 21.5993 27.7758 21.548 27.7532 21.4865C27.7298 21.4227 27.7042 21.379 27.6963 21.3659C27.6925 21.3597 27.6911 21.3576 27.694 21.362C27.6968 21.3662 27.7017 21.3736 27.71 21.3856C27.7274 21.4107 27.7512 21.4445 27.7876 21.4962L26.2703 22.5655ZM26.0787 22.252C25.9014 21.9586 25.4841 21.2069 24.3811 19.2198L26.0041 18.3189C27.1225 20.334 27.5133 21.0371 27.6673 21.2918L26.0787 22.252ZM24.381 19.2195C24.5312 19.4905 24.8734 19.5902 25.1464 19.4393L24.2486 17.8147C24.8742 17.469 25.6591 17.697 26.0042 18.3192L24.381 19.2195ZM25.1507 19.4369C25.2052 19.4064 25.2537 19.3595 25.2862 19.3053L23.6942 18.3508C23.8284 18.1271 24.0163 17.9447 24.2443 17.8171L25.1507 19.4369ZM25.2861 19.3055C25.3526 19.1947 25.3571 19.0545 25.2909 18.936L23.6702 19.8409C23.4095 19.374 23.4219 18.8049 23.6943 18.3507L25.2861 19.3055ZM25.292 18.9381L26.256 20.6749L24.633 21.5757L23.669 19.8388L25.292 18.9381ZM26.2558 20.6747C26.5171 21.1452 26.4304 21.7329 26.043 22.1076L24.7525 20.7734C24.5354 20.9834 24.4869 21.3127 24.6331 21.5759L26.2558 20.6747ZM26.0443 22.1063C25.6538 22.4855 25.0635 22.5462 24.6064 22.2744L25.5554 20.6791C25.3024 20.5286 24.9718 20.5605 24.7512 20.7747L26.0443 22.1063ZM24.6035 22.2726L19.9661 19.4906L20.921 17.8989L25.5584 20.6809L24.6035 22.2726ZM19.9664 19.4908C20.057 19.545 20.1592 19.5609 20.2552 19.5437C20.3511 19.5265 20.4749 19.4683 20.5647 19.3386L19.0387 18.2818C19.4854 17.6367 20.3348 17.5475 20.9207 17.8987L19.9664 19.4908ZM20.5645 19.3388C20.637 19.2343 20.665 19.0944 20.6324 18.9631L18.831 19.4106C18.7334 19.0179 18.811 18.6104 19.0389 18.2816L20.5645 19.3388ZM20.6321 18.9618C20.6017 18.8402 20.5231 18.7365 20.4199 18.6746L19.4653 20.2665C19.1498 20.0774 18.9214 19.7723 18.8313 19.412L20.6321 18.9618ZM20.3577 18.6405C20.4416 18.6825 20.5032 18.7292 20.5423 18.7622C20.5615 18.7785 20.5763 18.7924 20.5853 18.801C20.5899 18.8054 20.5935 18.809 20.5957 18.8112C20.5969 18.8123 20.5978 18.8132 20.5983 18.8137C20.5986 18.814 20.5988 18.8143 20.599 18.8144C20.5991 18.8145 20.5991 18.8145 20.5992 18.8146C20.5992 18.8146 20.5992 18.8146 20.5992 18.8146C20.5992 18.8146 20.5992 18.8146 20.5992 18.8146C20.5992 18.8146 20.5992 18.8146 20.5992 18.8146C20.5995 18.8149 20.5978 18.8132 20.5958 18.8113C20.5937 18.8091 20.59 18.8055 20.5855 18.8012C20.5766 18.7927 20.5618 18.7788 20.5427 18.7626C20.5038 18.7297 20.4422 18.683 20.3585 18.6412L19.5283 20.3013C19.4444 20.2594 19.3827 20.2126 19.3437 20.1796C19.3245 20.1633 19.3096 20.1494 19.3007 20.1408C19.2961 20.1364 19.2924 20.1329 19.2902 20.1307C19.2891 20.1295 19.2882 20.1286 19.2876 20.1281C19.2874 20.1278 19.2871 20.1276 19.287 20.1274C19.2869 20.1274 19.2869 20.1273 19.2868 20.1273C19.2868 20.1273 19.2868 20.1272 19.2868 20.1272C19.2868 20.1272 19.2868 20.1272 19.2868 20.1272C19.2868 20.1272 19.2868 20.1272 19.2868 20.1272C19.2865 20.1269 19.2882 20.1286 19.2901 20.1306C19.2923 20.1327 19.2959 20.1363 19.3005 20.1406C19.3094 20.1492 19.3242 20.163 19.3433 20.1792C19.3822 20.2122 19.4438 20.2588 19.5274 20.3007L20.3577 18.6405ZM20.4208 18.6754L23.4529 20.4944L22.498 22.0861L19.4659 20.2671L20.4208 18.6754ZM23.4533 20.4946C24.0167 20.8329 24.199 21.5635 23.8611 22.1269L22.2693 21.1722C22.0803 21.4873 22.1822 21.8965 22.4977 22.0859L23.4533 20.4946ZM23.8605 22.1278C23.523 22.6891 22.7933 22.8742 22.2282 22.535L23.1835 20.9435C22.867 20.7535 22.4584 20.8576 22.2698 21.1713L23.8605 22.1278ZM22.2284 22.5351L18.506 20.3021L19.4608 18.7103L23.1833 20.9434L22.2284 22.5351ZM18.5063 20.3022C18.6105 20.3647 18.7391 20.3848 18.8603 20.3543L18.4078 18.5541C18.7679 18.4636 19.1451 18.521 19.4605 18.7101L18.5063 20.3022ZM18.8586 20.3547C18.9791 20.3247 19.0839 20.2463 19.1467 20.1413L17.5537 19.1885C17.7435 18.8713 18.0496 18.6434 18.4096 18.5537L18.8586 20.3547ZM19.1455 20.1433C19.2092 20.0374 19.2278 19.9092 19.1987 19.7915L17.3968 20.237C17.3086 19.8805 17.3639 19.504 17.5549 19.1865L19.1455 20.1433ZM19.1981 19.7891C19.1679 19.6682 19.0898 19.5646 18.9863 19.5025L18.0306 21.0937C17.7152 20.9043 17.4873 20.599 17.3974 20.2393L19.1981 19.7891ZM18.9858 19.5022L19.7102 19.9366L18.7555 21.5285L18.0311 21.094L18.9858 19.5022ZM19.7103 19.9367L22.7083 21.7354L21.7533 23.3271L18.7553 21.5284L19.7103 19.9367ZM22.7086 21.7356C23.272 22.0739 23.4543 22.8045 23.1164 23.3679L21.5246 22.4132C21.3356 22.7282 21.4375 23.1374 21.753 23.3269L22.7086 21.7356ZM23.1158 23.3688C22.7778 23.931 22.0481 24.1142 21.4843 23.7764L22.4381 22.184C22.1228 21.9952 21.7142 22.0977 21.5251 22.4123L23.1158 23.3688ZM21.4837 23.7761L18.451 21.9566L19.4059 20.3649L22.4386 22.1844L21.4837 23.7761ZM18.4501 21.956C18.673 22.0901 18.9588 22.0166 19.0907 21.797L17.4995 20.8413C17.8938 20.1848 18.7478 19.969 19.4068 20.3654L18.4501 21.956ZM19.0907 21.797C19.154 21.6916 19.1728 21.5638 19.1436 21.4458L17.3417 21.8914C17.2535 21.5347 17.309 21.1585 17.4995 20.8413L19.0907 21.797ZM19.143 21.4435C19.1126 21.3218 19.0341 21.2186 18.9318 21.1571L17.9753 22.7479C17.6608 22.5588 17.4324 22.2541 17.3423 21.8937L19.143 21.4435ZM18.931 21.1566L19.6745 21.6027L18.7196 23.1944L17.9761 22.7483L18.931 21.1566ZM19.6746 21.6027L21.9637 22.9761L21.0088 24.5678L18.7196 23.1944L19.6746 21.6027ZM21.964 22.9763C22.5274 23.3147 22.7097 24.0453 22.3719 24.6086L20.78 23.6539C20.591 23.969 20.693 24.3782 21.0084 24.5676L21.964 22.9763ZM22.3713 24.6096C22.0343 25.17 21.3045 25.357 20.7382 25.0163L21.6951 23.4257C21.3774 23.2346 20.9687 23.3402 20.7806 23.653L22.3713 24.6096ZM20.7391 25.0168L18.45 23.6434L19.405 22.0517L21.6941 23.4251L20.7391 25.0168ZM18.4503 23.6436C18.5549 23.7062 18.6835 23.7258 18.8031 23.6959L18.3529 21.8952C18.7126 21.8053 19.0889 21.8622 19.4046 22.0515L18.4503 23.6436ZM18.8031 23.6959C18.9225 23.6661 19.0268 23.5887 19.09 23.4835L17.4983 22.5285C17.6884 22.2116 17.9947 21.9847 18.3529 21.8952L18.8031 23.6959ZM19.0903 23.4829C19.1527 23.3788 19.172 23.2515 19.1426 23.1324L17.3408 23.5785C17.2522 23.2209 17.3087 22.845 17.498 22.529L19.0903 23.4829ZM19.142 23.1303C19.1116 23.0087 19.0331 22.9054 18.9308 22.8439L17.9743 24.4347C17.6598 24.2456 17.4314 23.941 17.3413 23.5805L19.142 23.1303ZM18.93 22.8434L23.5707 25.6273L22.6158 27.2191L17.9751 24.4352L18.93 22.8434ZM23.5707 25.6274C24.1347 25.9657 24.7678 26.0734 25.3522 25.9542L25.7233 27.7729C24.6618 27.9895 23.5579 27.7843 22.6158 27.2191L23.5707 25.6274ZM25.3521 25.9542C25.926 25.837 26.3702 25.519 26.6359 25.076L28.2278 26.0308C27.6794 26.945 26.7782 27.5575 25.7234 27.7729L25.3521 25.9542ZM26.6361 25.0757C27.0907 24.3185 27.03 23.5021 26.4634 22.8156L27.8949 21.634C28.96 22.9244 29.0886 24.5967 28.2276 26.031L26.6361 25.0757ZM27.2711 23.1484L27.2708 23.1484L27.0869 21.3013L27.0872 21.3013L27.2711 23.1484Z" fill="#4CAF4F" mask="url(#path-4-inside-2_211_2338)"/>
</svg>
