<svg width="805" height="69" viewBox="0 0 805 69" fill="none" xmlns="http://www.w3.org/2000/svg">
<g clip-path="url(#clip0_211_2045)">
<path fill-rule="evenodd" clip-rule="evenodd" d="M9.97907 20.6797C13.8233 20.6797 16.9398 23.7961 16.9398 27.6404V20.6797H23.9005C27.7447 20.6797 30.8612 23.7961 30.8612 27.6404C30.8612 31.4846 27.7447 34.6011 23.9005 34.6011C27.7447 34.6011 30.8612 37.7175 30.8612 41.5618C30.8612 43.4706 30.0928 45.2 28.8485 46.4575L28.8224 46.4837L28.7993 46.5067C27.5415 47.7528 25.8109 48.5225 23.9005 48.5225C22.003 48.5225 20.2829 47.7633 19.0273 46.5321C19.011 46.516 18.9947 46.4999 18.9785 46.4837C18.9632 46.4685 18.9481 46.4532 18.933 46.4378C17.7001 45.182 16.9398 43.4606 16.9398 41.5618C16.9398 45.406 13.8233 48.5225 9.97907 48.5225C6.13478 48.5225 3.01837 45.406 3.01837 41.5618V34.6011H9.97907C6.13478 34.6011 3.01837 31.4846 3.01837 27.6404C3.01837 23.7961 6.13478 20.6797 9.97907 20.6797ZM15.5476 27.6404C15.5476 30.7158 13.0545 33.2089 9.97907 33.2089V22.0718C13.0545 22.0718 15.5476 24.565 15.5476 27.6404ZM29.469 41.5618C29.469 38.4863 26.9759 35.9932 23.9005 35.9932C20.825 35.9932 18.3319 38.4863 18.3319 41.5618H29.469ZM4.41051 35.9932V41.5618C4.41051 44.6372 6.90364 47.1303 9.97907 47.1303C13.0545 47.1303 15.5476 44.6372 15.5476 41.5618V35.9932H4.41051ZM18.3319 33.2089V22.0718H23.9005C26.9759 22.0718 29.469 24.565 29.469 27.6404C29.469 30.7158 26.9759 33.2089 23.9005 33.2089H18.3319Z" fill="#263238"/>
</g>
<g clip-path="url(#clip1_211_2045)">
<path fill-rule="evenodd" clip-rule="evenodd" d="M138.046 27.6136L131.095 34.4945C132.485 35.8708 134.074 37.0308 135.805 37.9382C136.284 39.195 137.034 40.3737 138.056 41.3852C141.9 45.1908 148.133 45.1908 151.977 41.3852C152.999 40.3737 153.749 39.195 154.228 37.9381C155.959 37.0308 157.548 35.8708 158.938 34.4945L151.993 27.6192C151.988 27.614 151.982 27.6089 151.977 27.6037C148.133 23.7981 141.9 23.7981 138.056 27.6037C138.052 27.607 138.049 27.6103 138.046 27.6136ZM151.312 39.1797C149.287 39.8564 147.16 40.2029 145.016 40.2029C142.873 40.2029 140.747 39.8564 138.721 39.1797C138.94 39.4679 139.183 39.7445 139.448 40.0071C142.523 43.0516 147.51 43.0516 150.585 40.0071C150.85 39.7445 151.093 39.4679 151.312 39.1797ZM139.591 28.8441C140.113 29.1856 140.668 29.4779 141.249 29.7162C142.444 30.2059 143.724 30.458 145.016 30.458C146.309 30.458 147.589 30.2059 148.784 29.7162C149.365 29.4779 149.92 29.1856 150.442 28.8441C147.405 25.9833 142.628 25.9833 139.591 28.8441Z" fill="#3B4158"/>
</g>
<g clip-path="url(#clip2_211_2045)">
<path d="M292.58 31.4803C292.584 31.4513 292.584 31.4219 292.58 31.3929C292.584 31.3692 292.584 31.3451 292.58 31.3214L292.297 29.2801C292.256 29.0359 292.146 28.8076 291.981 28.6208L291.932 28.5652L291.843 28.4779L286.933 24.3317L287.071 24.4667C286.958 24.3345 286.817 24.2288 286.657 24.1573C286.497 24.0859 286.323 24.0504 286.147 24.0537H284.656C284.414 24.049 284.177 24.1245 283.984 24.2681C283.781 24.1254 283.537 24.0502 283.287 24.0537H281.796C281.601 24.0506 281.408 24.0981 281.237 24.1916C281.067 24.285 280.924 24.421 280.824 24.5858C280.67 24.8212 280.612 25.1048 280.662 25.3801L280.849 26.6669C280.725 26.5983 280.585 26.5627 280.443 26.5636H273.225C272.966 26.5652 272.713 26.6397 272.495 26.7781C272.285 26.9069 272.117 27.0914 272.009 27.3103L271.45 26.8416C271.23 26.642 270.94 26.5339 270.64 26.5398H259.314C259.054 26.5444 258.799 26.6156 258.576 26.7463C258.271 26.9215 258.047 27.2064 257.952 27.5406L254.355 39.3358C254.288 39.5302 254.281 39.7398 254.336 39.9378C254.391 40.1359 254.505 40.3135 254.663 40.4478C254.704 40.4821 254.748 40.5139 254.793 40.5431C254.793 40.5431 254.72 40.4954 254.679 40.4558L259.589 44.6099C259.797 44.7974 260.068 44.9021 260.351 44.9038H271.766C272.027 44.8971 272.281 44.8232 272.504 44.6893C272.629 44.622 272.742 44.5332 272.836 44.4272L272.876 44.3716L272.941 44.2922L272.99 44.2048L273.524 44.6576C273.729 44.8376 273.995 44.9366 274.27 44.9356H285.71C285.97 44.927 286.224 44.8532 286.447 44.7211C286.57 44.6496 286.682 44.5613 286.779 44.459L286.82 44.4034L286.884 44.324C286.919 44.2737 286.949 44.2205 286.974 44.1651C287 44.1169 287.022 44.0664 287.038 44.0142L290.32 33.2436V33.1483C290.324 33.1113 290.324 33.0741 290.32 33.0371V32.9656C290.324 32.9419 290.324 32.9178 290.32 32.8941C290.323 32.8439 290.323 32.7935 290.32 32.7432H291.373C291.465 32.7514 291.557 32.7514 291.648 32.7432H291.721C291.781 32.7258 291.838 32.7018 291.892 32.6717H291.973L292.118 32.5605L292.183 32.5129L292.297 32.3699V32.3223L292.378 32.1872C292.373 32.1609 292.373 32.1341 292.378 32.1078C292.373 32.0949 292.373 32.081 292.378 32.0681C292.395 32.0215 292.408 31.9737 292.418 31.9251C292.414 31.9094 292.414 31.8931 292.418 31.8774C292.414 31.8538 292.414 31.8296 292.418 31.8059C292.418 31.8059 292.58 31.4962 292.58 31.4803Z" fill="black"/>
<path d="M270.972 27.4453C271.015 27.4835 271.045 27.5336 271.058 27.589C271.071 27.6444 271.067 27.7023 271.045 27.7551L267.456 39.5424C267.411 39.671 267.318 39.7786 267.197 39.8442C267.098 39.9091 266.983 39.9474 266.865 39.9554H255.457C255.36 39.9508 255.267 39.9112 255.198 39.8442C255.156 39.8067 255.127 39.7579 255.114 39.7042C255.101 39.6504 255.105 39.5941 255.125 39.5424L258.722 27.7551C258.764 27.6248 258.853 27.5143 258.973 27.4453C259.074 27.3851 259.188 27.3497 259.305 27.3421H270.713C270.81 27.343 270.902 27.3799 270.972 27.4453ZM265.017 37.1674L267.164 30.13H261.153L259.014 37.1674H265.017ZM281.861 27.5645C281.9 27.6088 281.949 27.644 282.004 27.6673C282.058 27.6907 282.118 27.7017 282.177 27.6995H283.66C283.716 27.7 283.772 27.6865 283.822 27.6601C283.871 27.6337 283.913 27.5953 283.944 27.5486C283.97 27.5121 283.988 27.4708 283.998 27.4271C284.008 27.3835 284.009 27.3383 284 27.2944L283.709 25.1975C283.681 25.1004 283.631 25.0108 283.563 24.9354C283.524 24.891 283.475 24.8559 283.42 24.8325C283.366 24.8091 283.306 24.7981 283.247 24.8003H281.764C281.708 24.7998 281.652 24.8134 281.602 24.8398C281.553 24.8662 281.511 24.9045 281.481 24.9513C281.424 25.0625 281.4 25.1339 281.424 25.1975L281.724 27.2944C281.739 27.3965 281.787 27.4911 281.861 27.5645ZM286.569 25.1816C286.541 25.0845 286.491 24.9949 286.423 24.9195C286.385 24.8753 286.338 24.8401 286.285 24.8167C286.231 24.7933 286.173 24.7823 286.115 24.7845H284.624C284.569 24.7829 284.514 24.7961 284.465 24.8227C284.417 24.8492 284.376 24.8882 284.349 24.9354C284.295 25.0058 284.271 25.0943 284.284 25.1816L284.584 27.2785C284.602 27.3795 284.65 27.4732 284.721 27.5486C284.761 27.5921 284.81 27.6266 284.864 27.6499C284.919 27.6732 284.978 27.6847 285.037 27.6836H286.528C286.583 27.6843 286.638 27.6708 286.686 27.6443C286.735 27.6178 286.775 27.5793 286.804 27.5327C286.832 27.4972 286.851 27.4559 286.861 27.4119C286.871 27.3679 286.871 27.3224 286.86 27.2785L286.569 25.1816ZM280.557 28.3588L280.411 27.3262H273.225C273.112 27.3323 273.003 27.3679 272.909 27.4294C272.849 27.4613 272.797 27.5056 272.756 27.559C272.716 27.6125 272.688 27.674 272.674 27.7392L272.074 29.709C272.05 29.7583 272.042 29.8135 272.051 29.8674C272.059 29.9212 272.085 29.9713 272.123 30.0109C272.191 30.0738 272.28 30.1105 272.374 30.1141H281.108L278.961 37.1516H270.251C270.139 37.1541 270.03 37.1871 269.935 37.2468C269.821 37.3182 269.737 37.4285 269.7 37.5566L269.093 39.5265C269.073 39.577 269.068 39.6319 269.078 39.6852C269.088 39.7385 269.112 39.788 269.149 39.8283C269.216 39.8955 269.305 39.9352 269.401 39.9395H280.84C280.959 39.9295 281.073 39.8913 281.173 39.8283C281.292 39.7624 281.382 39.6546 281.424 39.5265L284.713 28.7559H281.011C280.952 28.757 280.894 28.7463 280.839 28.7245C280.785 28.7026 280.736 28.6701 280.695 28.6288C280.628 28.5568 280.58 28.4694 280.557 28.3746V28.3588Z" fill="white"/>
</g>
<g clip-path="url(#clip3_211_2045)">
<path d="M415.785 27.2308C415.785 27.2544 415.785 27.2838 415.779 27.3014C415.748 27.5309 415.748 27.7604 415.767 27.9958C415.779 28.0546 415.791 28.1135 415.84 28.1605C415.92 28.2488 416.043 28.2311 416.092 28.1252C416.116 28.0723 416.116 28.0193 416.104 27.9664C416.043 27.7428 416.03 27.5074 416.024 27.2779C416.024 27.2661 416.024 27.2485 416.024 27.2308C416.092 27.2249 416.153 27.2191 416.208 27.2191C416.251 27.2132 416.288 27.2073 416.319 27.1896C416.41 27.1426 416.41 27.0425 416.312 26.9955C416.276 26.9778 416.227 26.9719 416.184 26.9719C416.03 26.9778 415.877 26.9778 415.724 26.9778C415.669 26.9778 415.613 26.9837 415.558 26.9896C415.528 26.9955 415.491 26.9955 415.466 27.0131C415.423 27.0308 415.399 27.0602 415.399 27.1014C415.405 27.1426 415.423 27.1661 415.466 27.1838C415.491 27.2014 415.522 27.2073 415.552 27.2073C415.626 27.2132 415.705 27.2249 415.785 27.2308ZM417.471 27.5015C417.471 27.5074 417.477 27.5133 417.477 27.5133C417.502 27.6721 417.526 27.8251 417.545 27.9781C417.551 28.0311 417.557 28.0782 417.594 28.1193C417.673 28.2194 417.796 28.2076 417.851 28.1017C417.876 28.0487 417.882 27.9958 417.87 27.9369C417.833 27.7604 417.814 27.5839 417.778 27.4132C417.753 27.3073 417.723 27.2073 417.692 27.1131C417.673 27.0543 417.631 27.0131 417.557 27.0072C417.483 26.9955 417.428 27.0308 417.398 27.0837C417.361 27.1308 417.33 27.1779 417.306 27.2308C417.263 27.325 417.226 27.4191 417.177 27.5074C417.171 27.5309 417.165 27.5486 417.152 27.5662C417.146 27.5545 417.14 27.5486 417.14 27.5486C417.06 27.4015 416.987 27.2544 416.907 27.1131C416.895 27.1014 416.889 27.0896 416.883 27.0778C416.846 27.0249 416.803 26.9955 416.735 26.9955C416.674 27.0013 416.625 27.0367 416.594 27.0896C416.582 27.1131 416.582 27.1308 416.576 27.1543C416.551 27.3426 416.521 27.5309 416.496 27.7192C416.484 27.8251 416.478 27.931 416.478 28.037C416.472 28.0605 416.478 28.0899 416.49 28.1135C416.502 28.1605 416.539 28.19 416.588 28.1958C416.65 28.2017 416.692 28.1841 416.711 28.137C416.729 28.1017 416.735 28.0723 416.742 28.0429C416.766 27.9369 416.784 27.8369 416.803 27.7369C416.815 27.678 416.821 27.631 416.84 27.5662C416.852 27.5898 416.864 27.6074 416.876 27.6251C416.932 27.6957 416.987 27.7663 417.054 27.8251C417.122 27.8722 417.177 27.8663 417.232 27.8134C417.244 27.8016 417.25 27.7957 417.263 27.7839C417.318 27.7016 417.385 27.6192 417.44 27.5368C417.453 27.525 417.459 27.5133 417.471 27.5015Z" fill="#3A3B7B"/>
<path d="M403.345 27.3465C403.302 27.4583 403.294 27.5389 403.314 27.6059C403.336 27.6969 403.392 27.7267 403.469 27.7036C404.189 27.5327 405.768 28.0178 406.352 28.153C406.49 28.1814 406.602 28.0105 406.508 27.8574C406.371 27.7091 404.793 27.074 404.19 27.0394C403.954 27.0266 403.532 26.9685 403.345 27.3465Z" fill="#3A3B7B"/>
<path d="M409.516 25.2909C409.593 25.3334 409.636 25.3739 409.657 25.4192C409.689 25.4787 409.672 25.5198 409.619 25.5408C409.143 25.7638 408.509 26.7237 408.254 27.0548C408.192 27.1309 408.049 27.0867 408.027 26.9614C408.032 26.8198 408.593 25.7781 408.907 25.4943C409.03 25.3836 409.233 25.1662 409.516 25.2909Z" fill="#3A3B7B"/>
<path d="M405.725 24.8182C405.818 24.7515 405.913 24.7282 405.962 24.7715C406.681 25.361 407.061 26.2945 407.297 27.1492C407.306 27.1691 407.307 27.1976 407.3 27.2274C407.297 27.2529 407.277 27.2798 407.246 27.3007C407.214 27.3236 407.185 27.3306 407.172 27.3108C406.857 26.8999 405.059 25.3011 405.725 24.8182Z" fill="#3A3B7B"/>
<path d="M390.517 35.0386C390.689 34.9156 390.876 34.8132 391.074 34.7338C391.281 34.6769 391.502 34.6863 391.703 34.7606C391.904 34.835 392.075 34.9701 392.189 35.1456C392.291 35.3207 392.331 35.5228 392.302 35.7215C392.274 35.9202 392.18 36.1048 392.033 36.2474C391.919 36.363 391.789 36.4637 391.648 36.547C391.018 36.9374 390.383 37.3065 389.748 37.6969C389.618 37.7946 389.48 37.8823 389.335 37.959C389.116 38.0642 388.864 38.0924 388.625 38.0387C388.386 37.985 388.174 37.8527 388.026 37.6649C387.915 37.5318 387.821 37.3863 387.747 37.2316C387.145 36.0174 386.521 34.8086 385.942 33.5731C385.674 33.0382 385.457 32.4231 385.245 31.8294C385.153 31.6569 385.135 31.4569 385.195 31.2719C385.255 31.087 385.387 30.9316 385.564 30.839C385.741 30.7463 385.949 30.7236 386.144 30.7757C386.338 30.8279 386.503 30.9507 386.605 31.118C386.916 31.5156 387.192 31.9379 387.43 32.3803C388.031 33.4501 388.605 34.5198 389.185 35.5574C389.219 35.6148 389.256 35.6701 389.296 35.7232C389.733 35.5472 390.143 35.317 390.517 35.0386Z" fill="#3A3B7B"/>
<path d="M396.74 34.6654C395.363 36.2112 393.056 35.8207 391.897 33.831C391.072 32.4189 390.927 30.0869 392.722 28.616C393.105 28.3081 393.563 28.0983 394.054 28.0063C394.655 27.9235 395.268 28.0253 395.806 28.2972C396.343 28.5691 396.778 28.997 397.046 29.52C398.027 31.2315 397.888 33.4138 396.74 34.6654ZM396.183 31.0604C396.036 30.6398 395.743 30.2807 395.352 30.0441C395.131 29.8928 394.862 29.8193 394.591 29.8359C394.32 29.8524 394.064 29.9581 393.864 30.135C393.067 30.8143 392.9 32.4243 393.48 33.3817C393.554 33.5378 393.662 33.6766 393.798 33.7882C393.933 33.8999 394.093 33.9818 394.265 34.0281C394.437 34.0745 394.617 34.0842 394.793 34.0567C394.97 34.029 395.138 33.9648 395.285 33.8684C395.717 33.547 396.034 33.1043 396.192 32.6021C396.35 32.0998 396.341 31.5628 396.166 31.0657L396.183 31.0604Z" fill="#3A3B7B"/>
<path d="M402.357 31.7345C402.216 31.7636 402.071 31.7653 401.929 31.7396C401.787 31.7138 401.653 31.6612 401.532 31.5847C401.427 31.527 401.337 31.4477 401.268 31.3524C401.198 31.2571 401.152 31.1483 401.132 31.0337C401.111 30.9192 401.118 30.8017 401.15 30.6898C401.183 30.5779 401.241 30.4744 401.321 30.3866C401.459 30.2103 401.655 30.084 401.878 30.0283C402.459 29.8664 403.057 29.7677 403.661 29.7341C403.794 29.7193 403.929 29.7301 404.057 29.7658C404.185 29.8016 404.305 29.8615 404.409 29.9423C404.512 30.023 404.598 30.1228 404.661 30.2359C404.724 30.3489 404.763 30.4729 404.776 30.6006C404.95 31.2277 404.969 31.8853 404.832 32.5208C404.33 34.5747 402.602 35.2807 400.663 34.6228C400.119 34.4469 399.641 34.1191 399.292 33.6814C398.826 33.1543 398.496 32.5296 398.328 31.8575C398.192 31.2591 398.207 30.6381 398.372 30.0463C398.536 29.4545 398.846 28.9092 399.275 28.4557C399.683 27.9629 400.211 27.5751 400.814 27.3272C401.194 27.1258 401.64 27.0686 402.062 27.1667C402.158 27.1922 402.245 27.2418 402.314 27.3103C402.383 27.3789 402.432 27.464 402.455 27.5568C402.478 27.6496 402.475 27.7466 402.446 27.8379C402.417 27.9292 402.364 28.0114 402.29 28.076C402.151 28.1969 402 28.3044 401.839 28.3969C401.344 28.6997 400.912 29.0899 400.568 29.5469C400.343 29.8425 400.188 30.1821 400.113 30.5415C400.039 30.901 400.048 31.2717 400.139 31.6275C400.266 32.1127 400.546 32.5483 400.942 32.8738C402.168 33.9435 403.762 32.9112 403.483 31.451C403.076 31.5473 402.719 31.6489 402.357 31.7345Z" fill="#3A3B7B"/>
<path d="M409.847 34.7511C408.036 35.8209 405.974 34.7511 405.523 32.5047C405.194 30.9001 405.818 28.6536 408.003 27.7978C408.467 27.6197 408.972 27.5571 409.468 27.616C410.065 27.7208 410.613 28.0028 411.033 28.4221C411.454 28.8415 411.728 29.377 411.814 29.9534C412.182 31.8628 411.346 33.9007 409.847 34.7511ZM410.477 31.1514C410.476 30.7071 410.313 30.2772 410.015 29.9373C409.855 29.7271 409.625 29.5765 409.362 29.5111C409.1 29.4458 408.823 29.4697 408.577 29.579C407.596 29.9854 406.905 31.4617 407.156 32.5475C407.175 32.7179 407.232 32.8822 407.325 33.029C407.417 33.1757 407.541 33.3014 407.689 33.3972C407.838 33.4929 408.006 33.5565 408.182 33.5834C408.358 33.6103 408.539 33.6 408.71 33.553C409.229 33.3792 409.678 33.0543 409.994 32.6238C410.311 32.1932 410.48 31.6785 410.477 31.1514Z" fill="#3A3B7B"/>
<path d="M413.646 35.2005C413.619 35.3963 413.511 35.5736 413.348 35.6935C413.184 35.8133 412.978 35.8659 412.774 35.8397C412.57 35.8134 412.385 35.7105 412.26 35.5535C412.135 35.3966 412.081 35.1984 412.108 35.0026C412.135 34.8068 412.243 34.6295 412.406 34.5097C412.57 34.3898 412.776 34.3372 412.98 34.3634C413.184 34.3897 413.369 34.4926 413.494 34.6496C413.619 34.8066 413.673 35.0048 413.646 35.2005ZM413.161 27.9851C413.267 27.8297 413.423 27.7114 413.604 27.6478C413.786 27.5842 413.985 27.5787 414.17 27.6321C414.358 27.6773 414.525 27.7833 414.641 27.9323C414.758 28.0813 414.818 28.2642 414.811 28.4504C414.786 28.7492 414.74 29.0459 414.671 29.3383C414.488 30.3278 414.309 31.3173 414.114 32.2962C414.025 32.6866 413.908 33.061 413.78 33.4568C413.735 33.5805 413.661 33.6923 413.562 33.7831C413.501 33.8514 413.423 33.9037 413.336 33.9353C413.248 33.967 413.153 33.9768 413.06 33.964C412.968 33.9512 412.88 33.9162 412.805 33.8621C412.73 33.8081 412.67 33.7367 412.632 33.6547C412.566 33.5076 412.53 33.3496 412.526 33.1894C412.526 32.5261 412.526 31.8576 412.571 31.189C412.646 30.2348 412.795 29.2873 413.016 28.3542C413.042 28.2291 413.091 28.1096 413.161 28.0012V27.9851Z" fill="#3A3B7B"/>
<path fill-rule="evenodd" clip-rule="evenodd" d="M388.162 39.4985C388.097 39.6394 388.078 39.7966 388.111 39.9479C388.132 40.1473 388.179 40.3434 388.251 40.5318C388.34 40.7624 388.44 40.9905 388.563 41.2717C388.591 41.3364 388.621 41.4039 388.652 41.4749C388.818 41.8558 389.026 42.3426 389.304 43.047C389.383 43.2471 389.453 43.4489 389.523 43.6521C389.552 43.7341 389.58 43.8165 389.609 43.899C389.714 44.1924 389.894 44.4561 390.133 44.665C390.234 44.7798 390.369 44.8635 390.519 44.9053C390.673 44.948 390.837 44.9453 390.989 44.8976C391.141 44.8498 391.274 44.7593 391.372 44.6376C391.468 44.5184 391.525 44.3747 391.536 44.2246C391.598 43.9322 391.577 43.629 391.474 43.3471C391.312 42.879 391.127 42.4102 390.913 41.9517L390.912 41.9497C390.561 41.2323 390.204 40.52 389.83 39.8073L389.827 39.8023C389.717 39.6166 389.575 39.4507 389.406 39.3118C389.297 39.1879 389.146 39.1043 388.979 39.0755C388.808 39.0461 388.633 39.0757 388.483 39.1592C388.341 39.2368 388.229 39.3556 388.162 39.4985Z" fill="#3A3B7B"/>
<path fill-rule="evenodd" clip-rule="evenodd" d="M393.529 37.732C392.978 37.5951 392.403 37.5751 391.843 37.6736C391.409 37.7145 390.983 37.8105 390.687 38.0006C390.536 38.0974 390.415 38.2216 390.347 38.3795C390.279 38.5383 390.27 38.7199 390.326 38.9222C390.428 39.2928 390.56 39.6531 390.692 40.0123L390.713 40.0705L390.714 40.0717C391.111 41.1152 391.512 42.1551 391.916 43.1914C391.963 43.3547 392.03 43.5123 392.115 43.6609L392.116 43.6636C392.228 43.8482 392.372 44.0133 392.542 44.152C392.626 44.2283 392.731 44.281 392.845 44.3046C392.959 44.3284 393.079 44.3215 393.19 44.2846C393.301 44.2478 393.399 44.1824 393.474 44.0956C393.547 44.0102 393.596 43.9074 393.613 43.7979C393.686 43.5005 393.663 43.1888 393.546 42.9045C393.51 42.8089 393.481 42.7111 393.451 42.6082C393.441 42.5739 393.431 42.539 393.42 42.5034C394.346 42.1561 395.331 41.6892 395.677 40.6028C395.813 40.2274 395.824 39.8208 395.709 39.439C395.595 39.0567 395.359 38.7178 395.036 38.4691C394.596 38.1209 394.081 37.8693 393.529 37.732ZM392.002 39.0645C392.02 39.0595 392.038 39.0548 392.057 39.0504C392.659 38.9595 393.276 39.0807 393.793 39.3915C394.021 39.5436 394.114 39.7126 394.13 39.8752C394.147 40.0426 394.083 40.224 393.956 40.3983C393.715 40.7277 393.276 40.9914 392.879 41.0405C392.59 40.4011 392.296 39.7358 392.002 39.0645Z" fill="#3A3B7B"/>
<path d="M397.202 36.5616C397.858 36.2708 398.671 36.2206 399.307 36.4251C399.467 36.4698 399.606 36.5667 399.7 36.699C399.793 36.8306 399.836 36.9891 399.822 37.1475C399.821 37.2504 399.794 37.3516 399.745 37.4429C399.695 37.5358 399.622 37.6158 399.532 37.676C399.443 37.7361 399.34 37.7748 399.232 37.7886C399.123 37.8024 399.013 37.7911 398.911 37.7554L398.903 37.7527L398.895 37.749C398.843 37.7226 398.787 37.7027 398.729 37.6898L398.726 37.689C398.278 37.575 397.856 37.7639 397.702 37.9961C397.629 38.1068 397.62 38.2186 397.681 38.3203C397.746 38.4291 397.907 38.5513 398.233 38.6384C398.322 38.662 398.414 38.6847 398.507 38.7078C398.764 38.7718 399.032 38.8382 399.29 38.9303L399.291 38.9307C400.484 39.3663 400.929 40.2686 400.776 41.1172C400.626 41.9564 399.896 42.7202 398.798 42.9004C398.398 42.9854 397.982 42.9688 397.591 42.8523C397.199 42.7355 396.846 42.5223 396.566 42.2338L396.559 42.2263C396.471 42.1176 396.412 41.9899 396.385 41.8545C396.361 41.7322 396.374 41.6059 396.422 41.4903C396.47 41.3754 396.551 41.276 396.655 41.2036C396.766 41.1214 396.899 41.0722 397.038 41.0619C397.177 41.0517 397.315 41.0806 397.437 41.1451C397.559 41.2015 397.672 41.2735 397.774 41.3591L397.776 41.3607C397.955 41.5185 398.173 41.5596 398.381 41.5215C398.593 41.4829 398.792 41.3627 398.92 41.2033C399.047 41.0449 399.098 40.8567 399.037 40.674C398.977 40.49 398.793 40.2838 398.391 40.1114C398.285 40.0685 398.176 40.034 398.063 40.0003C398.032 39.9912 398.001 39.9822 397.97 39.973C397.886 39.9485 397.799 39.9233 397.715 39.8956C397.656 39.8765 397.598 39.8584 397.541 39.8405C397.384 39.7915 397.232 39.7438 397.085 39.6798C396.765 39.5753 396.489 39.3747 396.297 39.1075C396.105 38.8393 396.008 38.5186 396.021 38.1932C396.022 37.4003 396.542 36.8541 397.202 36.5616Z" fill="#3A3B7B"/>
<path d="M405.52 36.4771C405.392 36.4175 405.252 36.3892 405.11 36.3947C404.969 36.4003 404.831 36.4396 404.709 36.5091C404.588 36.5781 404.487 36.6747 404.415 36.7904C404.348 36.8878 404.302 36.9967 404.279 37.1111C404.256 37.2253 404.257 37.3428 404.281 37.4568C404.304 37.6033 404.331 37.7458 404.357 37.8863C404.4 38.1189 404.441 38.3462 404.469 38.578L404.47 38.5839C404.533 38.9473 404.566 39.315 404.569 39.6833L404.569 39.6886C404.59 40.0864 404.449 40.4765 404.175 40.7761L404.171 40.7814C404.082 40.8909 403.963 40.9745 403.827 41.0228C403.692 41.0711 403.544 41.0822 403.403 41.0549C403.261 41.0276 403.129 40.9629 403.024 40.868C402.918 40.7732 402.841 40.6516 402.803 40.5176C402.722 40.2352 402.675 39.9446 402.663 39.6518L402.802 37.5294C402.804 37.5017 402.806 37.4733 402.809 37.4445C402.814 37.3801 402.819 37.3144 402.822 37.2532C402.825 37.1631 402.822 37.0704 402.8 36.9827C402.778 36.893 402.735 36.8078 402.66 36.7351C402.585 36.6632 402.484 36.6102 402.357 36.5741C402.127 36.5103 401.933 36.5123 401.771 36.5782C401.609 36.6442 401.498 36.7666 401.42 36.908C401.342 37.0482 401.292 37.2141 401.254 37.3804C401.226 37.5038 401.203 37.6333 401.182 37.7565C401.174 37.799 401.167 37.8407 401.16 37.8812L401.16 37.8824C401.045 38.5585 401.011 39.2449 401.058 39.9284C401.067 40.2977 401.147 40.6623 401.295 41.0035C401.461 41.4438 401.763 41.8252 402.16 42.0975C402.558 42.3703 403.033 42.5206 403.522 42.5286C404.011 42.5365 404.491 42.4017 404.898 42.142C405.305 41.8826 405.62 41.5109 405.802 41.076C406.057 40.5221 406.176 39.9196 406.151 39.3146C406.136 38.8729 406.111 38.4278 406.087 37.9849C406.074 37.7677 406.062 37.5509 406.051 37.3355C406.046 37.1195 405.971 36.9102 405.838 36.7358C405.756 36.6256 405.647 36.5367 405.52 36.4771Z" fill="#3A3B7B"/>
<path d="M410.022 39.8051C410.009 39.8208 409.996 39.8371 409.982 39.854C409.878 39.2811 409.782 38.7084 409.686 38.1348C409.652 37.929 409.617 37.7223 409.582 37.5162L409.578 37.4932L409.566 37.4734C409.542 37.436 409.539 37.3993 409.539 37.3212V37.3121L409.538 37.3032C409.512 37.1417 409.436 36.9915 409.319 36.8721C409.204 36.7531 409.053 36.6702 408.887 36.6342C408.722 36.5951 408.548 36.6037 408.388 36.659C408.228 36.7142 408.089 36.8134 407.988 36.9442C407.903 37.0445 407.834 37.1558 407.782 37.2747C407.665 37.5309 407.546 37.7877 407.427 38.0452L407.425 38.0497C407.128 38.6926 406.83 39.3398 406.54 39.992L406.539 39.9941C406.361 40.4171 406.213 40.8627 406.067 41.307C406.038 41.3957 406.008 41.4843 405.979 41.5727C405.926 41.7129 405.903 41.8619 405.911 42.0107C405.901 42.144 405.934 42.277 406.006 42.3916C406.079 42.5086 406.189 42.6006 406.319 42.6548C406.457 42.713 406.612 42.7253 406.758 42.6899C406.905 42.6545 407.034 42.5736 407.127 42.4598C407.246 42.3197 407.348 42.1668 407.431 42.0049C407.677 41.5223 407.912 41.0339 408.146 40.5476C408.236 40.3595 408.324 40.1911 408.424 40.0076C408.431 40.0302 408.438 40.0523 408.445 40.0744C408.55 40.5173 408.727 40.9416 408.97 41.3317C409.016 41.4143 409.079 41.4865 409.157 41.5433C409.236 41.6009 409.326 41.6412 409.423 41.6617C409.519 41.6822 409.619 41.6823 409.715 41.662C409.812 41.6417 409.903 41.6013 409.981 41.5441L410.137 41.4324L411.344 40.4567L411.272 40.8932C411.174 41.4932 411.077 42.0883 410.974 42.6834C410.906 42.9472 410.906 43.2228 410.974 43.4865C411.003 43.6349 411.078 43.7715 411.189 43.8789C411.3 43.9873 411.443 44.0608 411.599 44.0902C411.755 44.1195 411.916 44.1033 412.062 44.0435C412.206 43.9846 412.328 43.8862 412.414 43.7607C412.613 43.5238 412.737 43.2369 412.771 42.9342C412.822 42.5068 412.88 42.0736 412.938 41.6405C413.004 41.1414 413.071 40.6423 413.127 40.1528L413.128 40.1513C413.182 39.6155 413.208 39.0775 413.206 38.5392C413.218 38.3691 413.174 38.1996 413.08 38.0548C412.986 37.9094 412.846 37.7964 412.681 37.7318C412.509 37.6568 412.317 37.6368 412.132 37.6747C411.949 37.7123 411.783 37.8051 411.658 37.9394C411.436 38.137 411.227 38.3485 411.033 38.5724L411.032 38.5739C410.82 38.8268 410.61 39.0847 410.402 39.3409C410.275 39.4967 410.148 39.6521 410.022 39.8051Z" fill="#3A3B7B"/>
</g>
<g clip-path="url(#clip4_211_2045)">
<path d="M542.081 26.0329C542.081 26.3572 542.347 26.6202 542.675 26.6202H543.27C543.598 26.6202 543.864 26.3572 543.864 26.0329C543.864 25.7085 543.598 25.4456 543.27 25.4456H542.675C542.347 25.4456 542.081 25.7085 542.081 26.0329Z" fill="#212326"/>
<path d="M524.838 44.2394H527.727L526.886 43.4088C526.663 43.1886 526.36 43.0648 526.045 43.0648H524.838C520.241 43.0648 516.515 39.3836 516.515 34.8425C516.515 30.3014 520.241 26.6202 524.838 26.6202H534.351C538.948 26.6202 542.675 30.3014 542.675 34.8425C542.675 39.3836 538.948 43.0648 534.351 43.0648H530.793C530.32 43.0648 529.866 42.8792 529.531 42.5488L528.546 41.5757C527.989 41.025 527.233 40.7156 526.444 40.7156H524.838C521.555 40.7156 518.893 38.0861 518.893 34.8425C518.893 31.5989 521.555 28.9694 524.838 28.9694H534.351C537.635 28.9694 540.297 31.5989 540.297 34.8425C540.297 38.0861 537.635 40.7156 534.351 40.7156H532.066C531.593 40.7156 531.14 40.5299 530.805 40.1995L529.82 39.2264C529.262 38.6757 528.506 38.3663 527.718 38.3663H524.838C522.868 38.3663 521.271 36.7886 521.271 34.8425C521.271 32.8963 522.868 31.3186 524.838 31.3186H534.351C536.322 31.3186 537.919 32.8963 537.919 34.8425C537.919 36.7649 536.36 38.3278 534.423 38.3656L534.423 38.3663H533.553C533.08 38.3663 532.626 38.1807 532.292 37.8503L531.306 36.8772C530.849 36.4253 530.258 36.1359 529.625 36.0466L529.595 36.0171H524.838C524.182 36.0171 523.649 35.4912 523.649 34.8425C523.649 34.1938 524.182 33.6679 524.838 33.6679H534.351C535.008 33.6679 535.54 34.1938 535.54 34.8425C535.54 35.4912 535.008 36.0171 534.351 36.0171H531.973L532.814 36.8477C533.037 37.068 533.339 37.1917 533.655 37.1917H534.351C535.665 37.1917 536.73 36.1399 536.73 34.8425C536.73 33.5451 535.665 32.4933 534.351 32.4933H524.838C523.525 32.4933 522.46 33.5451 522.46 34.8425C522.46 36.1399 523.525 37.1917 524.838 37.1917H529.204C529.677 37.1917 530.131 37.3774 530.466 37.7078L531.451 38.6809C532.008 39.2316 532.764 39.541 533.553 39.541H534.649V39.5319C537.137 39.3804 539.108 37.3387 539.108 34.8425C539.108 32.2476 536.978 30.144 534.351 30.144H524.838C522.211 30.144 520.082 32.2476 520.082 34.8425C520.082 37.4374 522.211 39.541 524.838 39.541H527.718C528.191 39.541 528.645 39.7266 528.979 40.057L529.964 41.0301C530.522 41.5808 531.278 41.8902 532.066 41.8902H534.351C538.292 41.8902 541.486 38.7348 541.486 34.8425C541.486 30.9501 538.292 27.7948 534.351 27.7948H524.838C520.898 27.7948 517.704 30.9501 517.704 34.8425C517.704 38.7348 520.898 41.8902 524.838 41.8902H526.444C526.917 41.8902 527.371 42.0758 527.706 42.4062L528.691 43.3793C529.248 43.93 530.004 44.2394 530.793 44.2394H534.351C539.605 44.2394 543.864 40.0323 543.864 34.8425C543.864 29.6527 539.605 25.4456 534.351 25.4456L524.838 25.4456C519.585 25.4456 515.325 29.6527 515.325 34.8425C515.325 40.0323 519.585 44.2394 524.838 44.2394Z" fill="#212326"/>
</g>
<g clip-path="url(#clip5_211_2045)">
<path d="M647.818 27.5339C646.404 27.5339 645.048 28.0955 644.049 29.095L640.787 32.357C639.787 33.3565 639.226 34.7121 639.226 36.1256C639.226 39.0692 641.612 41.4553 644.556 41.4553C645.969 41.4553 647.325 40.8938 648.324 39.8943L650.581 37.6379C650.581 37.6379 650.581 37.638 650.581 37.6379L657.155 31.0638C657.632 30.5864 658.28 30.3182 658.955 30.3182C660.085 30.3182 661.043 31.0548 661.375 32.0742L663.45 29.9994C662.504 28.5169 660.844 27.5339 658.955 27.5339C657.541 27.5339 656.185 28.0955 655.186 29.095L646.355 37.9255C645.878 38.4029 645.231 38.671 644.556 38.671C643.15 38.671 642.01 37.5314 642.01 36.1256C642.01 35.4505 642.278 34.8031 642.756 34.3257L646.018 31.0638C646.495 30.5864 647.142 30.3182 647.818 30.3182C648.948 30.3182 649.906 31.0549 650.238 32.0743L652.313 29.9994C651.366 28.517 649.707 27.5339 647.818 27.5339Z" fill="#394149"/>
<path d="M657.493 37.9255C657.015 38.4029 656.368 38.671 655.693 38.671C654.563 38.671 653.604 37.9346 653.272 36.9154L651.197 38.9902C652.144 40.4724 653.804 41.4553 655.693 41.4553C657.106 41.4553 658.462 40.8938 659.461 39.8943L668.292 31.0638C668.769 30.5864 669.417 30.3182 670.092 30.3182C671.498 30.3182 672.637 31.4578 672.637 32.8636C672.637 33.5387 672.369 34.1862 671.892 34.6635L668.63 37.9255C668.152 38.4029 667.505 38.671 666.83 38.671C665.7 38.671 664.741 37.9345 664.409 36.9152L662.334 38.99C663.281 40.4724 664.941 41.4553 666.83 41.4553C668.243 41.4553 669.599 40.8938 670.598 39.8943L673.86 36.6323C674.86 35.6328 675.421 34.2772 675.421 32.8636C675.421 29.9201 673.035 27.5339 670.092 27.5339C668.678 27.5339 667.323 28.0955 666.323 29.095L657.493 37.9255Z" fill="#394149"/>
</g>
<g clip-path="url(#clip6_211_2045)">
<path d="M804.887 31.4803C804.891 31.4513 804.891 31.4219 804.887 31.3929C804.891 31.3692 804.891 31.3451 804.887 31.3214L804.604 29.2801C804.563 29.0359 804.453 28.8076 804.288 28.6208L804.239 28.5652L804.15 28.4779L799.24 24.3317L799.378 24.4667C799.265 24.3345 799.124 24.2288 798.964 24.1573C798.804 24.0859 798.63 24.0504 798.454 24.0537H796.964C796.721 24.049 796.484 24.1245 796.291 24.2681C796.088 24.1254 795.844 24.0502 795.594 24.0537H794.104C793.908 24.0506 793.715 24.0981 793.545 24.1916C793.374 24.285 793.231 24.421 793.131 24.5858C792.977 24.8212 792.92 25.1048 792.969 25.3801L793.156 26.6669C793.032 26.5983 792.893 26.5627 792.751 26.5636H785.532C785.273 26.5652 785.02 26.6397 784.803 26.7781C784.593 26.9069 784.424 27.0914 784.317 27.3103L783.757 26.8416C783.537 26.642 783.247 26.5339 782.947 26.5398H771.621C771.361 26.5444 771.107 26.6156 770.883 26.7463C770.578 26.9215 770.354 27.2064 770.26 27.5406L766.662 39.3358C766.595 39.5302 766.589 39.7398 766.643 39.9378C766.698 40.1359 766.812 40.3135 766.97 40.4478C767.011 40.4821 767.055 40.5139 767.1 40.5431C767.1 40.5431 767.027 40.4954 766.986 40.4558L771.896 44.6099C772.104 44.7974 772.375 44.9021 772.658 44.9038H784.073C784.334 44.8971 784.588 44.8232 784.811 44.6893C784.936 44.622 785.049 44.5332 785.143 44.4272L785.183 44.3716L785.248 44.2922L785.297 44.2048L785.832 44.6576C786.036 44.8376 786.302 44.9366 786.577 44.9356H798.017C798.277 44.927 798.531 44.8532 798.754 44.7211C798.877 44.6496 798.989 44.5613 799.086 44.459L799.127 44.4034L799.192 44.324C799.226 44.2737 799.256 44.2205 799.281 44.1651C799.307 44.1169 799.329 44.0664 799.346 44.0142L802.627 33.2436V33.1483C802.631 33.1113 802.631 33.0741 802.627 33.0371V32.9656C802.631 32.9419 802.631 32.9178 802.627 32.8941C802.631 32.8439 802.631 32.7935 802.627 32.7432H803.68C803.772 32.7514 803.864 32.7514 803.956 32.7432H804.029C804.088 32.7258 804.145 32.7018 804.199 32.6717H804.28L804.426 32.5605L804.49 32.5129L804.604 32.3699V32.3223L804.685 32.1872C804.68 32.1609 804.68 32.1341 804.685 32.1078C804.681 32.0949 804.681 32.081 804.685 32.0681C804.702 32.0215 804.716 31.9737 804.725 31.9251C804.722 31.9094 804.722 31.8931 804.725 31.8774C804.721 31.8538 804.721 31.8296 804.725 31.8059C804.725 31.8059 804.887 31.4962 804.887 31.4803Z" fill="black"/>
<path d="M783.279 27.4453C783.322 27.4835 783.353 27.5336 783.366 27.589C783.379 27.6444 783.374 27.7023 783.352 27.7551L779.763 39.5424C779.718 39.671 779.626 39.7786 779.504 39.8442C779.405 39.9091 779.291 39.9474 779.172 39.9554H767.764C767.667 39.9508 767.575 39.9112 767.505 39.8442C767.464 39.8067 767.435 39.7579 767.422 39.7042C767.409 39.6504 767.412 39.5941 767.432 39.5424L771.029 27.7551C771.071 27.6248 771.16 27.5143 771.28 27.4453C771.381 27.3851 771.495 27.3497 771.613 27.3421H783.02C783.117 27.343 783.21 27.3799 783.279 27.4453ZM777.325 37.1674L779.472 30.13H773.46L771.321 37.1674H777.325ZM794.168 27.5645C794.207 27.6088 794.256 27.644 794.311 27.6673C794.366 27.6907 794.425 27.7017 794.485 27.6995H795.967C796.024 27.7 796.079 27.6865 796.129 27.6601C796.179 27.6337 796.22 27.5953 796.251 27.5486C796.277 27.5121 796.296 27.4708 796.305 27.4271C796.315 27.3835 796.316 27.3383 796.307 27.2944L796.016 25.1975C795.988 25.1004 795.938 25.0108 795.87 24.9354C795.831 24.891 795.782 24.8559 795.728 24.8325C795.673 24.8091 795.614 24.7981 795.554 24.8003H794.071C794.015 24.7998 793.959 24.8134 793.91 24.8398C793.86 24.8662 793.818 24.9045 793.788 24.9513C793.731 25.0625 793.707 25.1339 793.731 25.1975L794.031 27.2944C794.046 27.3965 794.094 27.4911 794.168 27.5645ZM798.876 25.1816C798.848 25.0845 798.798 24.9949 798.73 24.9195C798.693 24.8753 798.645 24.8401 798.592 24.8167C798.539 24.7933 798.48 24.7823 798.422 24.7845H796.931C796.876 24.7829 796.821 24.7961 796.772 24.8227C796.724 24.8492 796.684 24.8882 796.656 24.9354C796.602 25.0058 796.579 25.0943 796.591 25.1816L796.891 27.2785C796.91 27.3795 796.957 27.4732 797.029 27.5486C797.068 27.5921 797.117 27.6266 797.171 27.6499C797.226 27.6732 797.285 27.6847 797.344 27.6836H798.835C798.891 27.6843 798.945 27.6708 798.994 27.6443C799.042 27.6178 799.082 27.5793 799.111 27.5327C799.139 27.4972 799.159 27.4559 799.168 27.4119C799.178 27.3679 799.178 27.3224 799.167 27.2785L798.876 25.1816ZM792.864 28.3588L792.718 27.3262H785.532C785.419 27.3323 785.31 27.3679 785.216 27.4294C785.156 27.4613 785.104 27.5056 785.064 27.559C785.023 27.6125 784.995 27.674 784.981 27.7392L784.381 29.709C784.357 29.7583 784.349 29.8135 784.358 29.8674C784.367 29.9212 784.392 29.9713 784.43 30.0109C784.498 30.0738 784.587 30.1105 784.681 30.1141H793.415L791.268 37.1516H782.558C782.446 37.1541 782.337 37.1871 782.242 37.2468C782.128 37.3182 782.044 37.4285 782.007 37.5566L781.4 39.5265C781.38 39.577 781.375 39.6319 781.385 39.6852C781.395 39.7385 781.42 39.788 781.457 39.8283C781.523 39.8955 781.613 39.9352 781.708 39.9395H793.148C793.266 39.9295 793.38 39.8913 793.48 39.8283C793.599 39.7624 793.689 39.6546 793.731 39.5265L797.02 28.7559H793.318C793.259 28.757 793.201 28.7463 793.146 28.7245C793.092 28.7026 793.043 28.6701 793.002 28.6288C792.935 28.5568 792.887 28.4694 792.864 28.3746V28.3588Z" fill="white"/>
</g>
<defs>
<clipPath id="clip0_211_2045">
<rect width="27.8428" height="27.8428" fill="white" transform="translate(3.01837 20.6797)"/>
</clipPath>
<clipPath id="clip1_211_2045">
<rect width="27.8428" height="19.4899" fill="white" transform="translate(131.095 24.7495)"/>
</clipPath>
<clipPath id="clip2_211_2045">
<rect width="38.2838" height="20.8821" fill="white" transform="translate(254.299 24.0535)"/>
</clipPath>
<clipPath id="clip3_211_2045">
<rect width="32.7153" height="20.186" fill="white" transform="translate(385.16 24.7495)"/>
</clipPath>
<clipPath id="clip4_211_2045">
<rect width="28.5388" height="18.7939" fill="white" transform="translate(515.325 25.4456)"/>
</clipPath>
<clipPath id="clip5_211_2045">
<rect width="36.1956" height="13.9214" fill="white" transform="translate(639.226 27.5339)"/>
</clipPath>
<clipPath id="clip6_211_2045">
<rect width="38.2838" height="20.8821" fill="white" transform="translate(766.607 24.0535)"/>
</clipPath>
</defs>
</svg>
