<svg width="347" height="35" viewBox="0 0 347 35" fill="none" xmlns="http://www.w3.org/2000/svg">
<rect x="0.142151" y="0.919434" width="33.4113" height="33.4113" rx="5.56856" fill="#E8F5E9"/>
<g clip-path="url(#clip0_211_2510)">
<path fill-rule="evenodd" clip-rule="evenodd" d="M7.34882 1.05469C11.1931 1.05469 14.3095 4.17109 14.3095 8.01538V1.05469H21.2702C25.1145 1.05469 28.2309 4.17109 28.2309 8.01538C28.2309 11.8596 25.1145 14.9761 21.2702 14.9761C25.1145 14.9761 28.2309 18.0925 28.2309 21.9368C28.2309 23.8456 27.4625 25.575 26.2182 26.8325L26.1922 26.8587L26.1691 26.8817C24.9113 28.1278 23.1806 28.8975 21.2702 28.8975C19.3728 28.8975 17.6527 28.1383 16.397 26.9071C16.3807 26.891 16.3644 26.8749 16.3482 26.8587C16.333 26.8435 16.3178 26.8282 16.3027 26.8128C15.0699 25.557 14.3095 23.8356 14.3095 21.9368C14.3095 25.781 11.1931 28.8975 7.34882 28.8975C3.50453 28.8975 0.388123 25.781 0.388123 21.9368V14.9761H7.34882C3.50453 14.9761 0.388123 11.8596 0.388123 8.01538C0.388123 4.17109 3.50453 1.05469 7.34882 1.05469ZM12.9174 8.01538C12.9174 11.0908 10.4243 13.5839 7.34882 13.5839V2.44683C10.4243 2.44683 12.9174 4.93995 12.9174 8.01538ZM26.8388 21.9368C26.8388 18.8613 24.3457 16.3682 21.2702 16.3682C18.1948 16.3682 15.7017 18.8613 15.7017 21.9368H26.8388ZM1.78026 16.3682V21.9368C1.78026 25.0122 4.27339 27.5053 7.34882 27.5053C10.4243 27.5053 12.9174 25.0122 12.9174 21.9368V16.3682H1.78026ZM15.7017 13.5839V2.44683H21.2702C24.3457 2.44683 26.8388 4.93995 26.8388 8.01538C26.8388 11.0908 24.3457 13.5839 21.2702 13.5839H15.7017Z" fill="#5417D7"/>
</g>
<rect x="62.0923" y="0.919434" width="33.4113" height="33.4113" rx="5.56856" fill="#F5F7FA"/>
<g clip-path="url(#clip1_211_2510)">
<path fill-rule="evenodd" clip-rule="evenodd" d="M69.1213 10.6375L62.1705 17.5184C63.5608 18.8947 65.149 20.0547 66.8806 20.9621C67.3592 22.219 68.1094 23.3976 69.1312 24.4091C72.9755 28.2148 79.2084 28.2148 83.0526 24.4091C84.0744 23.3976 84.8247 22.219 85.3033 20.9621C87.0348 20.0547 88.6231 18.8947 90.0133 17.5184L83.0681 10.6431C83.063 10.6379 83.0578 10.6328 83.0526 10.6277C79.2084 6.82203 72.9755 6.82203 69.1312 10.6277C69.1279 10.6309 69.1246 10.6342 69.1213 10.6375ZM82.3875 22.2036C80.362 22.8803 78.2356 23.2269 76.0919 23.2269C73.9482 23.2269 71.822 22.8803 69.7964 22.2036C70.0159 22.4918 70.2582 22.7684 70.5234 23.031C73.5988 26.0755 78.585 26.0755 81.6605 23.031C81.9257 22.7684 82.1681 22.4918 82.3875 22.2036ZM70.6661 11.868C71.1884 12.2096 71.7437 12.5018 72.3248 12.7401C73.5191 13.2299 74.7992 13.4819 76.0919 13.4819C77.3847 13.4819 78.6647 13.2299 79.8591 12.7401C80.4401 12.5018 80.9955 12.2096 81.5178 11.868C78.4807 9.00724 73.7032 9.00725 70.6661 11.868Z" fill="#3B4158"/>
</g>
<rect x="124.043" y="0.919434" width="33.4113" height="33.4113" rx="5.56856" fill="#F5F7FA"/>
<g clip-path="url(#clip2_211_2510)">
<path d="M162.323 14.5045C162.327 14.4754 162.327 14.4461 162.323 14.4171C162.327 14.3934 162.327 14.3693 162.323 14.3456L162.04 12.3043C161.999 12.06 161.889 11.8318 161.724 11.645L161.675 11.5894L161.586 11.502L156.676 7.35584L156.814 7.49088C156.701 7.35871 156.56 7.25299 156.4 7.18151C156.24 7.11003 156.066 7.0746 155.89 7.07784H154.4C154.157 7.07314 153.92 7.1487 153.727 7.29231C153.524 7.14956 153.28 7.07439 153.03 7.07784H151.54C151.344 7.07473 151.151 7.12231 150.981 7.21576C150.81 7.30921 150.667 7.44522 150.567 7.61002C150.413 7.84539 150.356 8.12899 150.405 8.40431L150.592 9.69105C150.468 9.62244 150.329 9.58684 150.187 9.5878H142.968C142.709 9.5894 142.456 9.66382 142.239 9.80225C142.029 9.93111 141.86 10.1156 141.752 10.3344L141.193 9.8658C140.973 9.66621 140.683 9.55803 140.383 9.56397H129.057C128.797 9.56861 128.543 9.6398 128.319 9.77049C128.014 9.9457 127.79 10.2306 127.696 10.5648L124.098 22.36C124.031 22.5543 124.024 22.7639 124.079 22.962C124.134 23.16 124.248 23.3376 124.406 23.472C124.447 23.5063 124.491 23.5381 124.536 23.5673C124.536 23.5673 124.463 23.5196 124.422 23.4799L129.332 27.6341C129.54 27.8215 129.811 27.9263 130.094 27.9279H141.509C141.77 27.9213 142.024 27.8473 142.247 27.7135C142.372 27.6461 142.485 27.5574 142.579 27.4513L142.619 27.3957L142.684 27.3163L142.733 27.229L143.268 27.6817C143.472 27.8617 143.738 27.9608 144.013 27.9597H155.453C155.713 27.9512 155.967 27.8774 156.19 27.7453C156.313 27.6738 156.425 27.5855 156.522 27.4831L156.563 27.4275L156.628 27.3481C156.662 27.2979 156.692 27.2447 156.717 27.1892C156.743 27.1411 156.765 27.0906 156.782 27.0384L160.063 16.2678V16.1725C160.067 16.1355 160.067 16.0982 160.063 16.0613V15.9898C160.067 15.9661 160.067 15.942 160.063 15.9183C160.067 15.8681 160.067 15.8176 160.063 15.7674H161.116C161.208 15.7756 161.3 15.7756 161.392 15.7674H161.465C161.524 15.75 161.581 15.726 161.635 15.6959H161.716L161.862 15.5847L161.926 15.537L162.04 15.394V15.3464L162.121 15.2114C162.116 15.1851 162.116 15.1582 162.121 15.132C162.116 15.1191 162.116 15.1051 162.121 15.0922C162.138 15.0457 162.152 14.9978 162.161 14.9492C162.158 14.9336 162.158 14.9172 162.161 14.9016C162.157 14.8779 162.157 14.8538 162.161 14.8301C162.161 14.8301 162.323 14.5203 162.323 14.5045Z" fill="black"/>
<path d="M140.715 10.4697C140.758 10.5079 140.788 10.558 140.801 10.6134C140.815 10.6688 140.81 10.7268 140.788 10.7795L137.199 22.5668C137.154 22.6955 137.062 22.803 136.94 22.8686C136.841 22.9335 136.726 22.9718 136.608 22.9798H125.2C125.103 22.9752 125.01 22.9356 124.941 22.8686C124.9 22.8311 124.87 22.7823 124.857 22.7286C124.844 22.6748 124.848 22.6185 124.868 22.5668L128.465 10.7795C128.507 10.6492 128.596 10.5387 128.716 10.4697C128.817 10.4095 128.931 10.3741 129.049 10.3665H140.456C140.553 10.3674 140.645 10.4043 140.715 10.4697ZM134.76 20.1918L136.907 13.1544H130.896L128.757 20.1918H134.76ZM151.604 10.5889C151.643 10.6332 151.692 10.6684 151.747 10.6918C151.801 10.7151 151.861 10.7261 151.92 10.7239H153.403C153.46 10.7244 153.515 10.7109 153.565 10.6845C153.614 10.6581 153.656 10.6197 153.687 10.573C153.713 10.5365 153.732 10.4952 153.741 10.4515C153.751 10.4079 153.752 10.3628 153.743 10.3188L153.452 8.2219C153.424 8.12485 153.374 8.03523 153.306 7.95978C153.267 7.91544 153.218 7.88027 153.164 7.85689C153.109 7.83352 153.049 7.82253 152.99 7.82475H151.507C151.451 7.82421 151.395 7.83779 151.345 7.86419C151.296 7.8906 151.254 7.92896 151.224 7.97567C151.167 8.08687 151.143 8.15835 151.167 8.2219L151.467 10.3188C151.482 10.4209 151.53 10.5155 151.604 10.5889ZM156.312 8.20601C156.284 8.10896 156.234 8.01934 156.166 7.94389C156.129 7.89971 156.081 7.86456 156.028 7.84114C155.975 7.81772 155.916 7.80668 155.858 7.80887H154.367C154.312 7.80731 154.257 7.82052 154.208 7.84709C154.16 7.87366 154.12 7.9126 154.092 7.95978C154.038 8.03025 154.014 8.11876 154.027 8.20601L154.327 10.3029C154.345 10.404 154.393 10.4976 154.464 10.573C154.504 10.6165 154.553 10.651 154.607 10.6743C154.662 10.6977 154.721 10.7091 154.78 10.708H156.271C156.327 10.7087 156.381 10.6952 156.429 10.6687C156.478 10.6422 156.518 10.6037 156.547 10.5571C156.575 10.5216 156.594 10.4803 156.604 10.4363C156.614 10.3923 156.614 10.3468 156.603 10.3029L156.312 8.20601ZM150.3 11.3832L150.154 10.3506H142.968C142.855 10.3567 142.746 10.3923 142.652 10.4538C142.592 10.4858 142.54 10.53 142.5 10.5834C142.459 10.6369 142.431 10.6984 142.417 10.7636L141.817 12.7334C141.793 12.7827 141.785 12.8379 141.794 12.8918C141.803 12.9457 141.828 12.9957 141.866 13.0353C141.934 13.0983 142.023 13.135 142.117 13.1386H150.851L148.704 20.176H139.994C139.882 20.1785 139.773 20.2115 139.678 20.2713C139.564 20.3426 139.48 20.4529 139.443 20.581L138.836 22.5509C138.816 22.6014 138.811 22.6564 138.821 22.7096C138.831 22.7629 138.856 22.8124 138.892 22.8527C138.959 22.9199 139.048 22.9597 139.144 22.9639H150.584C150.702 22.9539 150.816 22.9158 150.916 22.8527C151.035 22.7868 151.125 22.679 151.167 22.5509L154.456 11.7803H150.754C150.695 11.7814 150.637 11.7708 150.582 11.7489C150.528 11.727 150.479 11.6945 150.438 11.6532C150.371 11.5812 150.323 11.4938 150.3 11.3991V11.3832Z" fill="white"/>
</g>
<rect x="185.993" y="0.919434" width="33.4113" height="33.4113" rx="5.56856" fill="#F5F7FA"/>
<g clip-path="url(#clip3_211_2510)">
<path d="M216.617 10.2545C216.617 10.278 216.617 10.3075 216.611 10.3251C216.581 10.5546 216.581 10.7841 216.599 11.0195C216.611 11.0783 216.623 11.1371 216.673 11.1842C216.752 11.2725 216.875 11.2548 216.924 11.1489C216.948 11.096 216.948 11.043 216.936 10.99C216.875 10.7664 216.863 10.5311 216.856 10.3016C216.856 10.2898 216.856 10.2722 216.856 10.2545C216.924 10.2486 216.985 10.2427 217.04 10.2427C217.083 10.2369 217.12 10.231 217.151 10.2133C217.243 10.1663 217.243 10.0662 217.145 10.0191C217.108 10.0015 217.059 9.99561 217.016 9.99561C216.863 10.0015 216.709 10.0015 216.556 10.0015C216.501 10.0015 216.446 10.0074 216.391 10.0133C216.36 10.0191 216.323 10.0191 216.299 10.0368C216.256 10.0544 216.231 10.0839 216.231 10.1251C216.237 10.1663 216.256 10.1898 216.299 10.2074C216.323 10.2251 216.354 10.231 216.384 10.231C216.458 10.2369 216.538 10.2486 216.617 10.2545ZM218.303 10.5252C218.303 10.5311 218.309 10.537 218.309 10.537C218.334 10.6958 218.359 10.8488 218.377 11.0018C218.383 11.0548 218.389 11.1018 218.426 11.143C218.506 11.2431 218.628 11.2313 218.683 11.1254C218.708 11.0724 218.714 11.0195 218.702 10.9606C218.665 10.7841 218.647 10.6076 218.61 10.4369C218.585 10.331 218.555 10.231 218.524 10.1368C218.506 10.078 218.463 10.0368 218.389 10.0309C218.316 10.0191 218.26 10.0544 218.23 10.1074C218.193 10.1545 218.162 10.2016 218.138 10.2545C218.095 10.3487 218.058 10.4428 218.009 10.5311C218.003 10.5546 217.997 10.5723 217.985 10.5899C217.978 10.5781 217.972 10.5723 217.972 10.5723C217.893 10.4252 217.819 10.278 217.739 10.1368C217.727 10.1251 217.721 10.1133 217.715 10.1015C217.678 10.0486 217.635 10.0191 217.568 10.0191C217.506 10.025 217.457 10.0603 217.427 10.1133C217.414 10.1368 217.414 10.1545 217.408 10.178C217.384 10.3663 217.353 10.5546 217.329 10.7429C217.316 10.8488 217.31 10.9547 217.31 11.0606C217.304 11.0842 217.31 11.1136 217.322 11.1371C217.335 11.1842 217.371 11.2136 217.42 11.2195C217.482 11.2254 217.525 11.2078 217.543 11.1607C217.561 11.1254 217.568 11.096 217.574 11.0665C217.598 10.9606 217.617 10.8606 217.635 10.7606C217.647 10.7017 217.653 10.6546 217.672 10.5899C217.684 10.6134 217.696 10.6311 217.709 10.6488C217.764 10.7194 217.819 10.79 217.886 10.8488C217.954 10.8959 218.009 10.89 218.064 10.837C218.077 10.8253 218.083 10.8194 218.095 10.8076C218.15 10.7252 218.218 10.6429 218.273 10.5605C218.285 10.5487 218.291 10.537 218.303 10.5252Z" fill="#3A3B7B"/>
<path d="M204.177 10.3702C204.134 10.482 204.126 10.5626 204.146 10.6295C204.168 10.7206 204.224 10.7504 204.301 10.7272C205.021 10.5563 206.6 11.0414 207.185 11.1766C207.322 11.205 207.435 11.0342 207.34 10.8811C207.203 10.7327 205.625 10.0977 205.023 10.0631C204.786 10.0503 204.364 9.99219 204.177 10.3702Z" fill="#3A3B7B"/>
<path d="M210.348 8.31479C210.425 8.3573 210.468 8.39786 210.489 8.44317C210.521 8.50261 210.504 8.54374 210.451 8.56472C209.975 8.78769 209.342 9.74764 209.086 10.0787C209.024 10.1549 208.881 10.1106 208.859 9.98537C208.864 9.84375 209.425 8.802 209.739 8.51827C209.862 8.40749 210.065 8.19012 210.348 8.31479Z" fill="#3A3B7B"/>
<path d="M206.558 7.84216C206.65 7.77546 206.746 7.75209 206.795 7.79544C207.513 8.38494 207.894 9.31846 208.13 10.1731C208.138 10.193 208.139 10.2216 208.132 10.2514C208.129 10.2768 208.11 10.3038 208.079 10.3246C208.046 10.3476 208.018 10.3546 208.004 10.3348C207.689 9.92385 205.892 8.32508 206.558 7.84216Z" fill="#3A3B7B"/>
<path d="M191.349 18.0628C191.521 17.9398 191.708 17.8374 191.906 17.7579C192.114 17.7011 192.334 17.7105 192.536 17.7848C192.737 17.8591 192.907 17.9942 193.021 18.1698C193.123 18.3448 193.163 18.547 193.135 18.7457C193.107 18.9444 193.012 19.129 192.865 19.2716C192.751 19.3872 192.622 19.4879 192.48 19.5711C191.851 19.9616 191.215 20.3306 190.58 20.7211C190.45 20.8188 190.312 20.9065 190.168 20.9832C189.948 21.0884 189.697 21.1166 189.458 21.0628C189.218 21.0092 189.006 20.8769 188.858 20.689C188.747 20.556 188.654 20.4105 188.579 20.2558C187.978 19.0416 187.353 17.8328 186.774 16.5972C186.506 16.0624 186.289 15.4473 186.077 14.8536C185.986 14.6811 185.968 14.4811 186.027 14.2961C186.087 14.1111 186.219 13.9558 186.397 13.8631C186.574 13.7705 186.782 13.7478 186.976 13.7999C187.17 13.852 187.336 13.9748 187.437 14.1422C187.749 14.5398 188.025 14.9621 188.262 15.4045C188.864 16.4742 189.438 17.544 190.017 18.5816C190.051 18.639 190.088 18.6943 190.129 18.7474C190.565 18.5714 190.975 18.3412 191.349 18.0628Z" fill="#3A3B7B"/>
<path d="M197.572 17.6896C196.196 19.2353 193.888 18.8449 192.729 16.8552C191.904 15.4431 191.76 13.1111 193.554 11.6402C193.937 11.3322 194.395 11.1225 194.886 11.0304C195.487 10.9477 196.101 11.0495 196.638 11.3214C197.176 11.5932 197.61 12.0212 197.879 12.5441C198.859 14.2557 198.72 16.438 197.572 17.6896ZM197.015 14.0845C196.869 13.6639 196.575 13.3049 196.184 13.0683C195.963 12.917 195.695 12.8435 195.424 12.86C195.153 12.8766 194.896 12.9822 194.696 13.1592C193.9 13.8385 193.732 15.4485 194.312 16.4059C194.386 16.562 194.494 16.7007 194.63 16.8124C194.765 16.9241 194.925 17.006 195.097 17.0523C195.269 17.0987 195.449 17.1084 195.626 17.0808C195.802 17.0532 195.97 16.989 196.118 16.8926C196.55 16.5711 196.866 16.1285 197.024 15.6262C197.182 15.1239 197.173 14.5869 196.998 14.0899L197.015 14.0845Z" fill="#3A3B7B"/>
<path d="M203.19 14.7582C203.049 14.7873 202.903 14.789 202.761 14.7633C202.62 14.7375 202.485 14.6849 202.365 14.6084C202.26 14.5507 202.169 14.4714 202.1 14.3761C202.031 14.2808 201.984 14.172 201.964 14.0574C201.944 13.9428 201.95 13.8254 201.983 13.7135C202.015 13.6016 202.074 13.4981 202.153 13.4103C202.291 13.2339 202.488 13.1077 202.71 13.0519C203.291 12.8901 203.89 12.7914 204.494 12.7578C204.626 12.743 204.761 12.7537 204.889 12.7895C205.017 12.8253 205.137 12.8852 205.241 12.966C205.345 13.0467 205.431 13.1465 205.494 13.2595C205.557 13.3726 205.596 13.4966 205.608 13.6243C205.782 14.2514 205.801 14.909 205.664 15.5445C205.162 17.5983 203.435 18.3043 201.495 17.6465C200.951 17.4706 200.474 17.1428 200.124 16.7051C199.659 16.178 199.328 15.5533 199.16 14.8812C199.024 14.2827 199.039 13.6617 199.204 13.07C199.369 12.4782 199.679 11.9328 200.108 11.4794C200.515 10.9866 201.044 10.5988 201.646 10.3509C202.026 10.1495 202.472 10.0923 202.894 10.1904C202.99 10.2158 203.077 10.2654 203.146 10.334C203.215 10.4026 203.264 10.4877 203.287 10.5805C203.311 10.6732 203.308 10.7703 203.279 10.8616C203.25 10.9529 203.196 11.0351 203.123 11.0997C202.983 11.2206 202.832 11.3281 202.671 11.4206C202.176 11.7234 201.745 12.1136 201.401 12.5706C201.175 12.8662 201.02 13.2058 200.946 13.5652C200.872 13.9247 200.88 14.2954 200.972 14.6512C201.098 15.1364 201.378 15.5719 201.774 15.8974C203 16.9672 204.594 15.9349 204.315 14.4747C203.908 14.571 203.552 14.6726 203.19 14.7582Z" fill="#3A3B7B"/>
<path d="M210.679 17.7748C208.868 18.8446 206.806 17.7748 206.355 15.5284C206.026 13.9238 206.65 11.6773 208.835 10.8215C209.3 10.6433 209.804 10.5808 210.301 10.6396C210.897 10.7445 211.445 11.0265 211.866 11.4458C212.287 11.8652 212.56 12.4007 212.647 12.977C213.015 14.8865 212.179 16.9244 210.679 17.7748ZM211.309 14.1751C211.309 13.7308 211.145 13.3008 210.847 12.961C210.687 12.7508 210.457 12.6002 210.195 12.5348C209.932 12.4695 209.655 12.4934 209.409 12.6026C208.428 13.0091 207.737 14.4853 207.988 15.5712C208.007 15.7416 208.065 15.9059 208.157 16.0527C208.249 16.1994 208.374 16.3251 208.522 16.4209C208.67 16.5166 208.838 16.5802 209.014 16.6071C209.191 16.634 209.371 16.6236 209.543 16.5767C210.061 16.4029 210.51 16.078 210.827 15.6475C211.143 15.2169 211.312 14.7022 211.309 14.1751Z" fill="#3A3B7B"/>
<path d="M214.478 18.2244C214.451 18.4202 214.344 18.5975 214.18 18.7174C214.017 18.8372 213.81 18.8898 213.606 18.8636C213.402 18.8374 213.217 18.7344 213.093 18.5774C212.968 18.4205 212.913 18.2223 212.94 18.0265C212.968 17.8308 213.075 17.6535 213.238 17.5336C213.402 17.4137 213.608 17.3611 213.812 17.3874C214.016 17.4136 214.201 17.5165 214.326 17.6735C214.451 17.8305 214.506 18.0287 214.478 18.2244ZM213.993 11.009C214.099 10.8537 214.255 10.7354 214.437 10.6717C214.619 10.6081 214.817 10.6026 215.002 10.656C215.191 10.7013 215.357 10.8072 215.474 10.9562C215.59 11.1052 215.65 11.2881 215.643 11.4744C215.618 11.7731 215.572 12.0698 215.504 12.3622C215.32 13.3518 215.142 14.3413 214.946 15.3201C214.857 15.7106 214.74 16.085 214.612 16.4807C214.567 16.6045 214.493 16.7163 214.395 16.807C214.334 16.8753 214.256 16.9276 214.168 16.9592C214.08 16.9909 213.985 17.0008 213.893 16.988C213.8 16.9752 213.712 16.9401 213.637 16.8861C213.562 16.832 213.503 16.7606 213.464 16.6787C213.398 16.5316 213.362 16.3735 213.358 16.2133C213.358 15.5501 213.358 14.8815 213.403 14.2129C213.479 13.2587 213.628 12.3112 213.849 11.3781C213.875 11.2531 213.924 11.1335 213.993 11.0251V11.009Z" fill="#3A3B7B"/>
<path fill-rule="evenodd" clip-rule="evenodd" d="M188.995 22.5224C188.929 22.6634 188.911 22.8205 188.943 22.9718C188.964 23.1712 189.011 23.3673 189.083 23.5557C189.172 23.7864 189.272 24.0145 189.395 24.2956C189.423 24.3603 189.453 24.4278 189.484 24.4989C189.65 24.8797 189.859 25.3665 190.137 26.071C190.215 26.2711 190.285 26.4728 190.356 26.676C190.384 26.7581 190.412 26.8404 190.442 26.9229C190.546 27.2164 190.726 27.48 190.965 27.6889C191.067 27.8037 191.201 27.8874 191.352 27.9293C191.505 27.9719 191.669 27.9692 191.821 27.9215C191.973 27.8737 192.107 27.7832 192.204 27.6616C192.3 27.5423 192.357 27.3986 192.368 27.2485C192.43 26.9561 192.409 26.6529 192.307 26.371C192.144 25.9029 191.959 25.4341 191.745 24.9756L191.744 24.9736C191.393 24.2563 191.036 23.5439 190.662 22.8312L190.659 22.8262C190.55 22.6406 190.407 22.4746 190.238 22.3358C190.129 22.2118 189.978 22.1283 189.811 22.0994C189.641 22.07 189.465 22.0997 189.315 22.1831C189.174 22.2608 189.061 22.3795 188.995 22.5224Z" fill="#3A3B7B"/>
<path fill-rule="evenodd" clip-rule="evenodd" d="M194.361 20.7562C193.81 20.6192 193.235 20.5993 192.675 20.6977C192.242 20.7387 191.815 20.8347 191.519 21.0248C191.369 21.1215 191.247 21.2458 191.179 21.4037C191.111 21.5625 191.102 21.7441 191.158 21.9464C191.26 22.317 191.392 22.6773 191.524 23.0365L191.546 23.0946L191.546 23.0959C191.943 24.1394 192.344 25.1793 192.748 26.2156C192.795 26.3789 192.862 26.5364 192.947 26.685L192.949 26.6878C193.061 26.8724 193.204 27.0375 193.374 27.1762C193.459 27.2524 193.563 27.3052 193.677 27.3288C193.792 27.3526 193.911 27.3457 194.022 27.3088C194.133 27.2719 194.231 27.2066 194.306 27.1198C194.38 27.0344 194.428 26.9315 194.446 26.8221C194.519 26.5247 194.495 26.213 194.378 25.9287C194.342 25.833 194.313 25.7353 194.283 25.6324C194.273 25.5981 194.263 25.5632 194.252 25.5276C195.178 25.1803 196.163 24.7133 196.509 23.6269C196.645 23.2515 196.656 22.845 196.542 22.4631C196.427 22.0808 196.192 21.742 195.868 21.4932C195.428 21.145 194.913 20.8934 194.361 20.7562ZM192.834 22.0887C192.852 22.0836 192.871 22.079 192.889 22.0746C193.492 21.9837 194.108 22.1048 194.625 22.4157C194.853 22.5678 194.946 22.7367 194.963 22.8993C194.979 23.0667 194.916 23.2481 194.788 23.4225C194.548 23.7519 194.108 24.0156 193.711 24.0647C193.422 23.4253 193.128 22.76 192.834 22.0887Z" fill="#3A3B7B"/>
<path d="M198.034 19.5858C198.69 19.295 199.503 19.2448 200.139 19.4492C200.299 19.494 200.438 19.5909 200.532 19.7232C200.625 19.8547 200.668 20.0133 200.654 20.1717C200.653 20.2746 200.627 20.3758 200.577 20.4671C200.527 20.56 200.454 20.6399 200.365 20.7001C200.275 20.7603 200.172 20.7989 200.064 20.8128C199.956 20.8266 199.846 20.8152 199.743 20.7796L199.735 20.7769L199.728 20.7732C199.675 20.7468 199.619 20.7269 199.562 20.714L199.558 20.7132C199.111 20.5992 198.689 20.7881 198.535 21.0203C198.461 21.131 198.452 21.2428 198.513 21.3444C198.579 21.4533 198.74 21.5755 199.065 21.6625C199.154 21.6861 199.246 21.7089 199.339 21.732C199.597 21.796 199.864 21.8624 200.123 21.9545L200.124 21.9548C201.317 22.3905 201.761 23.2927 201.609 24.1414C201.458 24.9806 200.728 25.7444 199.63 25.9245C199.23 26.0096 198.814 25.993 198.423 25.8765C198.032 25.7597 197.678 25.5465 197.399 25.258L197.391 25.2505C197.303 25.1418 197.244 25.0141 197.218 24.8786C197.193 24.7564 197.206 24.63 197.254 24.5145C197.302 24.3996 197.383 24.3002 197.487 24.2277C197.598 24.1456 197.731 24.0963 197.87 24.0861C198.009 24.0758 198.148 24.1048 198.27 24.1693C198.391 24.2257 198.504 24.2977 198.606 24.3833L198.608 24.3849C198.788 24.5426 199.005 24.5837 199.214 24.5457C199.425 24.507 199.624 24.3869 199.752 24.2274C199.879 24.069 199.93 23.8808 199.87 23.6982C199.809 23.5141 199.626 23.308 199.223 23.1356C199.118 23.0927 199.009 23.0581 198.895 23.0245C198.864 23.0154 198.833 23.0063 198.802 22.9972C198.718 22.9727 198.631 22.9475 198.547 22.9198C198.488 22.9007 198.431 22.8826 198.373 22.8647C198.217 22.8157 198.064 22.768 197.917 22.704C197.597 22.5995 197.321 22.3988 197.129 22.1317C196.937 21.8635 196.84 21.5428 196.853 21.2174C196.854 20.4245 197.375 19.8782 198.034 19.5858Z" fill="#3A3B7B"/>
<path d="M206.352 19.501C206.225 19.4414 206.084 19.4131 205.943 19.4187C205.801 19.4242 205.663 19.4635 205.542 19.533C205.421 19.602 205.32 19.6986 205.247 19.8143C205.181 19.9117 205.134 20.0206 205.112 20.135C205.089 20.2493 205.089 20.3667 205.113 20.4807C205.137 20.6272 205.163 20.7697 205.189 20.9103C205.232 21.1428 205.274 21.3701 205.301 21.6019L205.302 21.6078C205.365 21.9713 205.398 22.3389 205.401 22.7073L205.401 22.7125C205.423 23.1104 205.281 23.5004 205.008 23.8L205.003 23.8053C204.914 23.9149 204.795 23.9984 204.66 24.0468C204.524 24.0951 204.377 24.1062 204.235 24.0788C204.093 24.0515 203.962 23.9868 203.856 23.892C203.75 23.7971 203.674 23.6756 203.636 23.5416C203.554 23.2591 203.507 22.9685 203.495 22.6758L203.634 20.5533C203.636 20.5256 203.639 20.4972 203.641 20.4685C203.646 20.404 203.652 20.3384 203.654 20.2771C203.657 20.187 203.654 20.0943 203.633 20.0066C203.61 19.917 203.568 19.8317 203.492 19.7591C203.417 19.6872 203.316 19.6341 203.189 19.598C202.96 19.5342 202.765 19.5362 202.604 19.6022C202.442 19.6681 202.331 19.7905 202.252 19.9319C202.174 20.0721 202.124 20.2381 202.086 20.4043C202.058 20.5277 202.036 20.6572 202.014 20.7805C202.007 20.823 202 20.8647 201.992 20.9052L201.992 20.9064C201.877 21.5824 201.843 22.2688 201.89 22.9523C201.899 23.3217 201.979 23.6863 202.127 24.0274C202.294 24.4677 202.595 24.8491 202.992 25.1214C203.39 25.3942 203.865 25.5446 204.354 25.5525C204.843 25.5604 205.323 25.4256 205.73 25.1659C206.137 24.9065 206.452 24.5348 206.634 24.1C206.889 23.546 207.008 22.9435 206.984 22.3385C206.969 21.8968 206.944 21.4517 206.919 21.0089C206.907 20.7916 206.894 20.5749 206.883 20.3594C206.878 20.1434 206.804 19.9341 206.671 19.7598C206.588 19.6495 206.479 19.5606 206.352 19.501Z" fill="#3A3B7B"/>
<path d="M210.854 22.8293C210.842 22.845 210.828 22.8613 210.814 22.8782C210.71 22.3053 210.614 21.7326 210.518 21.159C210.484 20.9531 210.449 20.7465 210.414 20.5404L210.411 20.5174L210.398 20.4975C210.374 20.4602 210.371 20.4235 210.371 20.3453V20.3363L210.37 20.3273C210.344 20.1659 210.268 20.0156 210.152 19.8963C210.036 19.7772 209.885 19.6944 209.72 19.6584C209.554 19.6193 209.381 19.6279 209.22 19.6832C209.061 19.7384 208.921 19.8376 208.82 19.9683C208.735 20.0687 208.666 20.18 208.615 20.2989C208.497 20.5551 208.378 20.8119 208.26 21.0694L208.258 21.0739C207.961 21.7167 207.662 22.3639 207.372 23.0162L207.371 23.0183C207.193 23.4413 207.046 23.8869 206.899 24.3312C206.87 24.4199 206.841 24.5085 206.811 24.5969C206.758 24.7371 206.735 24.886 206.743 25.0349C206.733 25.1682 206.767 25.3011 206.838 25.4158C206.911 25.5328 207.021 25.6248 207.151 25.679C207.29 25.7371 207.444 25.7495 207.591 25.7141C207.737 25.6787 207.866 25.5978 207.959 25.484C208.078 25.3438 208.18 25.191 208.264 25.029C208.509 24.5465 208.744 24.0581 208.978 23.5718C209.069 23.3837 209.156 23.2152 209.256 23.0318C209.263 23.0544 209.27 23.0764 209.278 23.0986C209.382 23.5415 209.559 23.9658 209.802 24.3558C209.848 24.4384 209.912 24.5107 209.989 24.5675C210.068 24.625 210.158 24.6654 210.255 24.6859C210.351 24.7064 210.451 24.7065 210.548 24.6862C210.644 24.6659 210.735 24.6255 210.813 24.5682L210.969 24.4565L212.176 23.4809L212.104 23.9174C212.006 24.5174 211.909 25.1124 211.806 25.7076C211.738 25.9714 211.738 26.2469 211.806 26.5106C211.836 26.659 211.91 26.7957 212.021 26.9031C212.133 27.0114 212.276 27.085 212.431 27.1144C212.587 27.1437 212.748 27.1275 212.894 27.0677C213.038 27.0088 213.161 26.9104 213.246 26.7849C213.445 26.5479 213.569 26.2611 213.603 25.9584C213.654 25.531 213.712 25.0978 213.77 24.6647C213.837 24.1655 213.903 23.6665 213.96 23.177L213.96 23.1755C214.014 22.6397 214.04 22.1017 214.038 21.5634C214.05 21.3933 214.006 21.2238 213.912 21.0789C213.818 20.9336 213.678 20.8206 213.513 20.756C213.341 20.681 213.149 20.661 212.964 20.6989C212.781 20.7365 212.615 20.8292 212.49 20.9636C212.268 21.1612 212.059 21.3727 211.865 21.5966L211.864 21.5981C211.652 21.851 211.442 22.1089 211.234 22.3651C211.107 22.5209 210.98 22.6763 210.854 22.8293Z" fill="#3A3B7B"/>
</g>
<rect x="247.943" y="0.919434" width="33.4113" height="33.4113" rx="5.56856" fill="#F5F7FA"/>
<g clip-path="url(#clip4_211_2510)">
<path d="M274.698 9.05703C274.698 9.3814 274.964 9.64434 275.293 9.64434H275.887C276.216 9.64434 276.482 9.3814 276.482 9.05703C276.482 8.73267 276.216 8.46973 275.887 8.46973H275.293C274.964 8.46973 274.698 8.73267 274.698 9.05703Z" fill="#212326"/>
<path d="M257.456 27.2636H260.344L259.503 26.433C259.28 26.2127 258.978 26.089 258.662 26.089H257.456C252.859 26.089 249.132 22.4077 249.132 17.8667C249.132 13.3256 252.859 9.64435 257.456 9.64434H266.969C271.566 9.64434 275.293 13.3256 275.293 17.8667C275.293 22.4077 271.566 26.089 266.969 26.089H263.41C262.937 26.089 262.483 25.9033 262.149 25.573L261.164 24.5999C260.606 24.0491 259.85 23.7397 259.062 23.7397H257.456C254.172 23.7397 251.51 21.1103 251.51 17.8667C251.51 14.623 254.172 11.9936 257.456 11.9936H266.969C270.252 11.9936 272.914 14.623 272.914 17.8667C272.914 21.1103 270.252 23.7397 266.969 23.7397H264.684C264.211 23.7397 263.757 23.5541 263.423 23.2237L262.437 22.2506C261.88 21.6999 261.124 21.3905 260.335 21.3905H257.456C255.486 21.3905 253.888 19.8128 253.888 17.8667C253.888 15.9205 255.486 14.3428 257.456 14.3428H266.969C268.939 14.3428 270.536 15.9205 270.536 17.8667C270.536 19.7891 268.978 21.352 267.041 21.3898L267.04 21.3905H266.17C265.697 21.3905 265.243 21.2049 264.909 20.8745L263.924 19.9014C263.466 19.4495 262.875 19.1601 262.242 19.0708L262.212 19.0413H257.456C256.799 19.0413 256.267 18.5154 256.267 17.8667C256.267 17.2179 256.799 16.692 257.456 16.692H266.969C267.625 16.692 268.158 17.2179 268.158 17.8667C268.158 18.5154 267.625 19.0413 266.969 19.0413H264.591L265.431 19.8719C265.654 20.0921 265.957 20.2159 266.272 20.2159H266.969C268.282 20.2159 269.347 19.1641 269.347 17.8667C269.347 16.5692 268.282 15.5174 266.969 15.5174H257.456C256.142 15.5174 255.078 16.5692 255.078 17.8667C255.078 19.1641 256.142 20.2159 257.456 20.2159H261.822C262.295 20.2159 262.748 20.4015 263.083 20.7319L264.068 21.705C264.626 22.2557 265.382 22.5651 266.17 22.5651H267.266V22.5561C269.754 22.4045 271.725 20.3629 271.725 17.8667C271.725 15.2718 269.596 13.1682 266.969 13.1682H257.456C254.829 13.1682 252.699 15.2718 252.699 17.8667C252.699 20.4616 254.829 22.5651 257.456 22.5651H260.335C260.808 22.5651 261.262 22.7508 261.597 23.0812L262.582 24.0543C263.139 24.605 263.895 24.9144 264.684 24.9144H266.969C270.909 24.9144 274.103 21.759 274.103 17.8667C274.103 13.9743 270.909 10.819 266.969 10.819H257.456C253.515 10.819 250.321 13.9743 250.321 17.8667C250.321 21.759 253.515 24.9144 257.456 24.9144H259.062C259.535 24.9144 259.988 25.1 260.323 25.4304L261.308 26.4035C261.866 26.9542 262.622 27.2636 263.41 27.2636H266.969C272.223 27.2636 276.482 23.0565 276.482 17.8667C276.482 12.6769 272.223 8.46973 266.969 8.46973L257.456 8.46973C252.202 8.46973 247.943 12.6769 247.943 17.8667C247.943 23.0565 252.202 27.2636 257.456 27.2636Z" fill="#212326"/>
</g>
<rect x="309.893" y="0.919434" width="33.4113" height="33.4113" rx="5.56856" fill="#F5F7FA"/>
<g clip-path="url(#clip5_211_2510)">
<path d="M318.485 10.5576C317.071 10.5576 315.716 11.1191 314.716 12.1187L311.454 15.3806C310.455 16.3801 309.893 17.7358 309.893 19.1493C309.893 22.0928 312.279 24.479 315.223 24.479C316.636 24.479 317.992 23.9175 318.991 22.918L321.248 20.6616C321.248 20.6616 321.248 20.6617 321.248 20.6616L327.822 14.0874C328.299 13.6101 328.947 13.3419 329.622 13.3419C330.752 13.3419 331.71 14.0785 332.043 15.0979L334.117 13.0231C333.171 11.5406 331.511 10.5576 329.622 10.5576C328.208 10.5576 326.853 11.1191 325.853 12.1187L317.023 20.9492C316.545 21.4266 315.898 21.6947 315.223 21.6947C313.817 21.6947 312.677 20.5551 312.677 19.1493C312.677 18.4742 312.946 17.8268 313.423 17.3494L316.685 14.0874C317.162 13.6101 317.81 13.3419 318.485 13.3419C319.615 13.3419 320.573 14.0786 320.905 15.0979L322.98 13.0231C322.034 11.5407 320.374 10.5576 318.485 10.5576Z" fill="#394149"/>
<path d="M328.16 20.9492C327.682 21.4266 327.035 21.6947 326.36 21.6947C325.23 21.6947 324.272 20.9583 323.939 19.9391L321.865 22.0139C322.811 23.4961 324.471 24.479 326.36 24.479C327.773 24.479 329.129 23.9175 330.129 22.918L338.959 14.0874C339.436 13.6101 340.084 13.3419 340.759 13.3419C342.165 13.3419 343.304 14.4815 343.304 15.8873C343.304 16.5624 343.036 17.2099 342.559 17.6872L339.297 20.9492C338.82 21.4266 338.172 21.6947 337.497 21.6947C336.367 21.6947 335.409 20.9581 335.076 19.9389L333.002 22.0137C333.948 23.4961 335.608 24.479 337.497 24.479C338.911 24.479 340.266 23.9175 341.266 22.918L344.528 19.656C345.527 18.6565 346.089 17.3009 346.089 15.8873C346.089 12.9438 343.703 10.5576 340.759 10.5576C339.345 10.5576 337.99 11.1191 336.99 12.1187L328.16 20.9492Z" fill="#394149"/>
</g>
<defs>
<clipPath id="clip0_211_2510">
<rect width="27.8428" height="27.8428" fill="white" transform="translate(0.388123 1.05469)"/>
</clipPath>
<clipPath id="clip1_211_2510">
<rect width="27.8428" height="19.4899" fill="white" transform="translate(62.1705 7.77344)"/>
</clipPath>
<clipPath id="clip2_211_2510">
<rect width="38.2838" height="20.8821" fill="white" transform="translate(124.043 7.07764)"/>
</clipPath>
<clipPath id="clip3_211_2510">
<rect width="32.7153" height="20.186" fill="white" transform="translate(185.993 7.77344)"/>
</clipPath>
<clipPath id="clip4_211_2510">
<rect width="28.5388" height="18.7939" fill="white" transform="translate(247.943 8.46973)"/>
</clipPath>
<clipPath id="clip5_211_2510">
<rect width="36.1956" height="13.9214" fill="white" transform="translate(309.893 10.5576)"/>
</clipPath>
</defs>
</svg>
