<svg width="134" height="22" viewBox="0 0 134 22" fill="none" xmlns="http://www.w3.org/2000/svg">
<path d="M17.0183 12.0319L12.3791 19.9774L7.73986 12.0319H17.0183ZM18.2612 11.3218H6.492L12.3791 21.3828L18.2612 11.3218Z" fill="white"/>
<path d="M25.0842 2.14926L29.7235 10.0948H20.445L25.0842 2.14926ZM25.0842 0.729004L19.1971 10.79H30.9713L25.0842 0.729004Z" fill="white"/>
<path d="M0.851471 0.729004L5.7876 9.628L11.1816 0.952459L0.851471 0.729004Z" fill="#4CAF4F"/>
<path d="M12.3792 1.5083L17.5569 10.3576H7.19153L12.3792 1.5083Z" fill="#4CAF4F"/>
<path d="M18.8902 12.29L24.0729 21.3827H13.461L18.7292 12.29H18.8902Z" fill="#4CAF4F"/>
<path d="M20.0123 11.7388L25.0842 20.6924L30.2266 11.7388H20.0123Z" fill="#4CAF4F"/>
<path d="M52.5136 2.16553V19.6898H49.3133L41.6892 8.66012H41.5609V19.6898H37.8558V2.16553H41.1074L48.6716 13.1866H48.8256V2.16553H52.5136Z" fill="white"/>
<path d="M61.496 19.9465C60.144 19.9465 58.9803 19.6727 58.0049 19.125C57.0351 18.5717 56.2878 17.7902 55.763 16.7805C55.2382 15.7651 54.9758 14.5643 54.9758 13.1781C54.9758 11.8261 55.2382 10.6396 55.763 9.61847C56.2878 8.59737 57.0265 7.80159 57.9792 7.23113C58.9375 6.66068 60.0613 6.37546 61.3506 6.37546C62.2176 6.37546 63.0248 6.51522 63.7721 6.79474C64.5251 7.06856 65.1811 7.48213 65.7402 8.03547C66.3049 8.58881 66.7442 9.28476 67.0579 10.1233C67.3717 10.9562 67.5285 11.9317 67.5285 13.0497V14.0509H56.4304V11.7919H64.0973C64.0973 11.2671 63.9832 10.8022 63.755 10.3971C63.5268 9.99212 63.2102 9.67552 62.8052 9.44734C62.4059 9.21345 61.941 9.09651 61.4105 9.09651C60.8571 9.09651 60.3665 9.22486 59.9387 9.48156C59.5166 9.73256 59.1857 10.072 58.9461 10.4998C58.7065 10.922 58.5839 11.3926 58.5782 11.9117V14.0594C58.5782 14.7098 58.698 15.2716 58.9375 15.7451C59.1828 16.2186 59.528 16.5837 59.9729 16.8404C60.4179 17.0971 60.9455 17.2254 61.5559 17.2254C61.9609 17.2254 62.3317 17.1684 62.6683 17.0543C63.0049 16.9402 63.2929 16.7691 63.5325 16.5409C63.7721 16.3127 63.9547 16.0332 64.0802 15.7023L67.4515 15.9248C67.2804 16.7349 66.9296 17.4422 66.399 18.0469C65.8742 18.6459 65.1954 19.1136 64.3625 19.4502C63.5354 19.7811 62.5799 19.9465 61.496 19.9465Z" fill="white"/>
<path d="M72.7182 6.54659L75.1312 11.1416L77.6041 6.54659H81.3434L77.5357 13.1182L81.4461 19.6898H77.7239L75.1312 15.1461L72.5813 19.6898H68.8163L72.7182 13.1182L68.9532 6.54659H72.7182Z" fill="white"/>
<path d="M88.9761 19.9465C87.6298 19.9465 86.4718 19.6613 85.502 19.0908C84.538 18.5147 83.7964 17.716 83.2773 16.6949C82.7639 15.6738 82.5072 14.4987 82.5072 13.1695C82.5072 11.8233 82.7667 10.6424 83.2858 9.62703C83.8106 8.60592 84.5551 7.81014 85.5191 7.23969C86.4832 6.66354 87.6298 6.37546 88.959 6.37546C90.1056 6.37546 91.1096 6.58367 91.971 7.0001C92.8323 7.41653 93.514 8.00124 94.016 8.75424C94.518 9.50724 94.7947 10.3914 94.846 11.4068H91.4062C91.3092 10.7508 91.0525 10.2232 90.6361 9.82384C90.2254 9.41882 89.6863 9.21631 89.0189 9.21631C88.4541 9.21631 87.9607 9.37033 87.5385 9.67837C87.1221 9.98071 86.797 10.4228 86.5631 11.0047C86.3292 11.5865 86.2122 12.291 86.2122 13.1182C86.2122 13.9568 86.3263 14.6698 86.5545 15.2574C86.7884 15.8449 87.1164 16.2928 87.5385 16.6008C87.9607 16.9088 88.4541 17.0629 89.0189 17.0629C89.4353 17.0629 89.8089 16.9773 90.1398 16.8062C90.4764 16.635 90.753 16.3869 90.9698 16.0617C91.1923 15.7309 91.3378 15.3344 91.4062 14.8723H94.846C94.789 15.8763 94.5152 16.7605 94.0246 17.5249C93.5397 18.2836 92.8694 18.8769 92.0137 19.3047C91.1581 19.7326 90.1455 19.9465 88.9761 19.9465Z" fill="white"/>
<path d="M103.17 19.9465C101.818 19.9465 100.654 19.6727 99.6785 19.125C98.7087 18.5717 97.9614 17.7902 97.4366 16.7805C96.9118 15.7651 96.6494 14.5643 96.6494 13.1781C96.6494 11.8261 96.9118 10.6396 97.4366 9.61847C97.9614 8.59737 98.7001 7.80159 99.6528 7.23113C100.611 6.66068 101.735 6.37546 103.024 6.37546C103.891 6.37546 104.698 6.51522 105.446 6.79474C106.199 7.06856 106.855 7.48213 107.414 8.03547C107.979 8.58881 108.418 9.28476 108.732 10.1233C109.045 10.9562 109.202 11.9317 109.202 13.0497V14.0509H98.104V11.7919H105.771C105.771 11.2671 105.657 10.8022 105.429 10.3971C105.2 9.99212 104.884 9.67552 104.479 9.44734C104.079 9.21345 103.615 9.09651 103.084 9.09651C102.531 9.09651 102.04 9.22486 101.612 9.48156C101.19 9.73256 100.859 10.072 100.62 10.4998C100.38 10.922 100.257 11.3926 100.252 11.9117V14.0594C100.252 14.7098 100.372 15.2716 100.611 15.7451C100.856 16.2186 101.202 16.5837 101.647 16.8404C102.091 17.0971 102.619 17.2254 103.23 17.2254C103.635 17.2254 104.005 17.1684 104.342 17.0543C104.678 16.9402 104.967 16.7691 105.206 16.5409C105.446 16.3127 105.628 16.0332 105.754 15.7023L109.125 15.9248C108.954 16.7349 108.603 17.4422 108.073 18.0469C107.548 18.6459 106.869 19.1136 106.036 19.4502C105.209 19.7811 104.253 19.9465 103.17 19.9465Z" fill="white"/>
<path d="M115.226 12.0914V19.6898H111.581V6.54659H115.055V8.86548H115.209C115.5 8.10107 115.988 7.49639 116.672 7.05144C117.357 6.60079 118.187 6.37546 119.162 6.37546C120.075 6.37546 120.871 6.57512 121.55 6.97443C122.228 7.37375 122.756 7.9442 123.133 8.68579C123.509 9.42167 123.697 10.3002 123.697 11.3213V19.6898H120.052V11.9716C120.058 11.1672 119.852 10.5398 119.436 10.0891C119.02 9.63274 118.446 9.40456 117.716 9.40456C117.226 9.40456 116.792 9.51009 116.415 9.72115C116.045 9.93222 115.754 10.2403 115.543 10.6453C115.337 11.0446 115.232 11.5266 115.226 12.0914Z" fill="white"/>
<path d="M133.561 6.54659V9.28476H125.646V6.54659H133.561ZM127.443 3.3977H131.088V15.651C131.088 15.9876 131.14 16.25 131.242 16.4382C131.345 16.6208 131.488 16.7491 131.67 16.8233C131.858 16.8974 132.075 16.9345 132.32 16.9345C132.492 16.9345 132.663 16.9203 132.834 16.8917C133.005 16.8575 133.136 16.8318 133.227 16.8147L133.801 19.5272C133.618 19.5843 133.361 19.6499 133.031 19.724C132.7 19.8039 132.298 19.8524 131.824 19.8695C130.946 19.9037 130.175 19.7868 129.514 19.5187C128.858 19.2505 128.347 18.8341 127.982 18.2694C127.617 17.7046 127.437 16.9916 127.443 16.1302V3.3977Z" fill="white"/>
</svg>
