<svg width="12" height="13" viewBox="0 0 12 13" fill="none" xmlns="http://www.w3.org/2000/svg">
<path fill-rule="evenodd" clip-rule="evenodd" d="M11.4608 0.766201C11.6026 0.90801 11.6506 1.11852 11.5844 1.30781L7.93002 11.7489C7.8593 11.9509 7.67243 12.0893 7.45855 12.098C7.24468 12.1067 7.04715 11.984 6.96021 11.7884L4.95355 7.27343L0.438569 5.26677C0.242967 5.17984 0.120251 4.98231 0.128977 4.76843C0.137702 4.55456 0.2761 4.36768 0.478135 4.29697L10.9192 0.642605C11.1085 0.576353 11.319 0.624392 11.4608 0.766201ZM5.97174 6.99354L7.37953 10.1611L9.84316 3.12211L5.97174 6.99354ZM9.10487 2.38382L2.06592 4.84745L5.23345 6.25524L9.10487 2.38382Z" fill="white"/>
</svg>
