<svg width="12" height="10" viewBox="0 0 13 10" fill="none" xmlns="http://www.w3.org/2000/svg">
<path fill-rule="evenodd" clip-rule="evenodd" d="M10.8638 0.945344C11.375 1.08561 11.7775 1.4989 11.9141 2.02374C12.1624 2.97495 12.1624 4.95966 12.1624 4.95966C12.1624 4.95966 12.1624 6.9443 11.9141 7.89557C11.7775 8.42041 11.375 8.8337 10.8638 8.97404C9.93747 9.22888 6.2226 9.22888 6.2226 9.22888C6.2226 9.22888 2.50773 9.22888 1.58133 8.97404C1.07017 8.8337 0.66761 8.42041 0.530995 7.89557C0.282806 6.9443 0.282806 4.95966 0.282806 4.95966C0.282806 4.95966 0.282806 2.97495 0.530995 2.02374C0.66761 1.4989 1.07017 1.08561 1.58133 0.945344C2.50773 0.69043 6.2226 0.69043 6.2226 0.69043C6.2226 0.69043 9.93747 0.69043 10.8638 0.945344ZM5.1089 3.28905V7.00142L8.0788 5.14531L5.1089 3.28905Z" fill="white"/>
</svg>
