<svg width="12" height="10" viewBox="0 0 12 10" fill="none" xmlns="http://www.w3.org/2000/svg">
<path fill-rule="evenodd" clip-rule="evenodd" d="M5.47768 2.68945L5.50105 3.07482L5.11154 3.02763C3.69373 2.84675 2.45509 2.2333 1.40341 1.20303L0.889261 0.691825L0.756828 1.06933C0.476381 1.91085 0.655555 2.79956 1.23982 3.39727C1.55143 3.72759 1.48131 3.77478 0.943792 3.57816C0.756828 3.51524 0.593234 3.46806 0.577653 3.49165C0.523122 3.5467 0.710087 4.26239 0.8581 4.54552C1.06064 4.93875 1.47352 5.32412 1.92535 5.5522L2.30707 5.73308L1.85524 5.74095C1.41899 5.74095 1.40341 5.74881 1.45015 5.91397C1.60596 6.42517 2.22138 6.96784 2.90692 7.20378L3.38991 7.36894L2.96924 7.62061C2.34602 7.98238 1.61375 8.18686 0.88147 8.20259C0.530912 8.21046 0.242676 8.24192 0.242676 8.26551C0.242676 8.34416 1.19308 8.78458 1.74618 8.9576C3.40549 9.4688 5.3764 9.24859 6.85654 8.37561C7.90821 7.75431 8.95989 6.51955 9.45067 5.32412C9.71553 4.68708 9.9804 3.52311 9.9804 2.96472C9.9804 2.60294 10.0038 2.55575 10.44 2.1232C10.6971 1.87153 10.9386 1.59626 10.9853 1.51762C11.0632 1.36819 11.0554 1.36819 10.6581 1.50189C9.99598 1.73783 9.9025 1.70637 10.2297 1.35246C10.4712 1.10079 10.7594 0.644637 10.7594 0.510937C10.7594 0.487343 10.6426 0.526667 10.5101 0.597449C10.3699 0.676095 10.0583 0.794066 9.8246 0.864848L9.40393 0.998547L9.02221 0.739013C8.81187 0.597449 8.51585 0.440155 8.36004 0.392967C7.96274 0.282862 7.35511 0.298591 6.99676 0.424426C6.02299 0.778336 5.40756 1.69064 5.47768 2.68945Z" fill="white"/>
</svg>
